<svg width="13" height="13" viewBox="0 0 13 13" fill="none" xmlns="http://www.w3.org/2000/svg">
<path d="M6.49998 1.0835C3.5154 1.0835 1.08331 3.51558 1.08331 6.50016C1.08331 9.48475 3.5154 11.9168 6.49998 11.9168C9.48456 11.9168 11.9166 9.48475 11.9166 6.50016C11.9166 3.51558 9.48456 1.0835 6.49998 1.0835ZM8.01123 6.78725L6.09915 8.69933C6.0179 8.78058 5.91498 8.8185 5.81206 8.8185C5.70915 8.8185 5.60623 8.78058 5.52498 8.69933C5.3679 8.54225 5.3679 8.28225 5.52498 8.12516L7.14998 6.50016L5.52498 4.87516C5.3679 4.71808 5.3679 4.45808 5.52498 4.301C5.68206 4.14391 5.94206 4.14391 6.09915 4.301L8.01123 6.21308C8.17373 6.37016 8.17373 6.63016 8.01123 6.78725Z" fill="#4EAAFF"/>
</svg>
