<svg width="17" height="15" viewBox="0 0 17 15" fill="none" xmlns="http://www.w3.org/2000/svg">
<path d="M8.06497 1.25C4.41643 1.25 1.4433 4.05625 1.4433 7.5C1.4433 10.9438 4.41643 13.75 8.06497 13.75C11.7135 13.75 14.6866 10.9438 14.6866 7.5C14.6866 4.05625 11.7135 1.25 8.06497 1.25ZM9.91242 7.83125L7.57497 10.0375C7.47564 10.1312 7.34983 10.175 7.22402 10.175C7.09821 10.175 6.9724 10.1312 6.87307 10.0375C6.68104 9.85625 6.68104 9.55625 6.87307 9.375L8.85957 7.5L6.87307 5.625C6.68104 5.44375 6.68104 5.14375 6.87307 4.9625C7.0651 4.78125 7.38294 4.78125 7.57497 4.9625L9.91242 7.16875C10.1111 7.35 10.1111 7.65 9.91242 7.83125Z" fill="#0ABC22"/>
</svg>
