<svg width="75" height="75" viewBox="0 0 75 75" fill="none" xmlns="http://www.w3.org/2000/svg">
<g clip-path="url(#clip0_97_2184)">
<path d="M35.0807 66.5324C35.7488 66.5324 36.2903 65.9908 36.2903 65.3227C36.2903 64.6546 35.7488 64.113 35.0807 64.113C34.4126 64.113 33.871 64.6546 33.871 65.3227C33.871 65.9908 34.4126 66.5324 35.0807 66.5324Z" fill="#0EA422"/>
<path d="M68.9517 66.5324C69.6197 66.5324 70.1613 65.9908 70.1613 65.3227C70.1613 64.6546 69.6197 64.113 68.9517 64.113C68.2836 64.113 67.742 64.6546 67.742 65.3227C67.742 65.9908 68.2836 66.5324 68.9517 66.5324Z" fill="#0EA422"/>
<path d="M65.3226 55.6452H62.9033V53.2258H70.1613C71.4957 53.2258 72.5807 52.1407 72.5807 50.8065V41.129C72.5807 39.7947 71.4957 38.7097 70.1613 38.7097H67.742V36.2903C67.742 34.956 66.657 33.871 65.3226 33.871H58.0646C58.0646 32.5367 56.9795 31.4517 55.6453 31.4517V26.613C55.6453 23.9445 53.4751 21.7743 50.8066 21.7743C48.1381 21.7743 45.9679 23.9445 45.9679 26.613H38.3385C37.5897 24.6049 36.6099 22.7118 35.4098 20.9832L35.9227 19.4456C36.1658 18.715 36.2905 17.9529 36.2905 17.1787C36.2905 14.3481 34.6199 11.7775 32.0336 10.6284L14.5163 2.84294V2.41959C14.5162 1.08514 13.431 0 12.0968 0C5.42659 0 0 5.42659 0 12.0968V13.8315V19.3548C0 20.6892 1.08514 21.7742 2.41934 21.7742V41.1882C1.04157 41.4593 0 42.6737 0 44.1302C0 44.8088 0.23226 45.4741 0.656869 46.0052L3.16575 49.1419C1.12619 51.7948 0 55.0501 0 58.4106C0 61.603 0.981072 64.6634 2.83549 67.2605L3.28674 67.8908C5.38314 70.8279 8.78962 72.5807 12.3968 72.5807C14.804 72.5807 17.1907 71.7859 19.1141 70.3403L20.8041 69.0725C21.4113 68.6201 21.7743 67.8956 21.7743 67.137V65.3225C21.7743 63.9882 20.6892 62.9032 19.355 62.9032H17.9384L14.5163 44.6455V19.6754C18.4079 21.4838 21.7938 24.2189 24.3836 27.6713L29.1836 34.0718L26.6602 49.2158C26.63 49.4021 26.613 49.5908 26.613 49.782C26.613 51.6812 28.1577 53.226 30.057 53.226H36.2905V55.6453H33.8711C28.5352 55.6453 24.1936 59.9869 24.1936 65.3228C24.1936 70.6587 28.5352 75.0003 33.8711 75.0003H65.3228C70.6587 75.0003 75.0003 70.6587 75.0003 65.3228C75.0003 59.9869 70.6584 55.6452 65.3226 55.6452ZM38.7097 65.3226C38.7097 67.3234 37.0815 68.9517 35.0807 68.9517C33.0799 68.9517 31.4517 67.3234 31.4517 65.3226C31.4517 63.3219 33.0799 61.6936 35.0807 61.6936C37.0815 61.6935 38.7097 63.3219 38.7097 65.3226ZM62.9033 65.3226H41.129C41.129 64.4613 40.9427 63.6461 40.6161 62.9033H62.9033V65.3226ZM46.6609 67.742C46.3029 68.4666 45.5844 68.9517 44.7581 68.9517C43.9319 68.9517 43.2134 68.4666 42.8554 67.742H46.6609ZM53.9189 67.742C53.5609 68.4666 52.8424 68.9517 52.0162 68.9517C51.1899 68.9517 50.4714 68.4666 50.1134 67.742H53.9189ZM61.1771 67.742C60.819 68.4666 60.1005 68.9517 59.2743 68.9517C58.4481 68.9517 57.7296 68.4666 57.3715 67.742H61.1771ZM66.1717 50.8065L70.1612 47.3868V50.8065H66.1717ZM70.1613 44.2028L62.4569 50.8065H50.8065V41.129H70.1613V44.2028ZM48.3871 31.4517H32.0722L32.475 29.0323H48.3871V31.4517ZM48.3871 45.9678H41.1291V41.1291H48.3871V45.9678ZM31.6694 33.871H38.7097V43.5485H30.0568L31.6694 33.871ZM41.129 48.3871H48.387V50.8065H41.129V48.3871ZM48.3871 38.7097H41.1291V33.871H48.3871V38.7097ZM55.6452 33.871V38.7097H50.8065V33.871H55.6452ZM65.3226 36.2903V38.7097H58.0646V36.2903H65.3226ZM50.8065 24.1935C52.1408 24.1935 53.2258 25.2787 53.2258 26.6129V31.4515H50.8065V29.0322C50.8065 27.6979 49.7213 26.6129 48.3871 26.6129C48.3871 25.2787 49.4722 24.1935 50.8065 24.1935ZM33.871 17.1786C33.871 17.6904 33.7899 18.1948 33.6279 18.6786L33.617 18.7101C30.9279 15.6375 27.5336 13.2206 23.7218 11.6952L24.4392 9.90128L31.0513 12.8396C32.7641 13.6004 33.871 15.3036 33.871 17.1786ZM22.2266 8.91781L21.4354 10.8956C20.2052 10.5339 18.9435 10.2569 17.654 10.0852L14.902 9.71739C14.7701 9.70047 14.6455 9.71499 14.5162 9.70893V5.49075L22.2266 8.91781ZM2.41934 12.0968C2.41934 6.76091 6.76091 2.41934 12.0968 2.41934V10.2533C10.6706 11.0396 9.67748 12.5516 9.67748 14.29V14.5767C9.67748 16.2751 10.6295 17.8294 12.0968 18.6279V43.5483H9.62418L8.4956 18.7366C8.45809 17.9262 8.02022 17.193 7.32344 16.7733L2.41947 13.8314L2.41934 12.0968ZM2.41934 19.3548V16.6525L6.07866 18.848L6.10164 19.3548H2.41934ZM6.21165 21.7742L7.09105 41.129H4.83868V21.7742H6.21165ZM2.41934 44.1291C2.41934 43.8097 2.68065 43.5485 2.99992 43.5485H7.20118L7.23743 44.3348L4.74547 47.2416L2.54627 44.4933C2.46417 44.3904 2.41934 44.2609 2.41934 44.1291ZM5.25609 66.4863L4.80483 65.8549C3.24431 63.6702 2.41934 61.096 2.41934 58.4106C2.41934 55.3561 3.51408 52.3948 5.50275 50.0747L8.72167 46.3199L12.8612 70.1228C12.7063 70.1325 12.5528 70.1615 12.3966 70.1615C9.56861 70.1613 6.89883 68.7871 5.25609 66.4863ZM17.9396 65.3226H19.3548V67.1372L17.6625 68.4061C16.9282 68.9577 16.1069 69.3822 15.2407 69.6799L11.1157 45.9678H12.3024L15.5613 63.3496C15.7766 64.4928 16.7759 65.3226 17.9396 65.3226ZM26.319 26.221C23.0491 21.8613 18.6229 18.5444 13.5206 16.6306C12.6689 16.3112 12.0968 15.4862 12.0968 14.5778V14.2911C12.0968 12.9847 13.2581 11.9419 14.5815 12.1161L17.3347 12.4839C25.5278 13.5763 32.5887 19.0488 35.7533 26.613H32.475C31.2895 26.613 30.2856 27.4622 30.0883 28.6356L29.7314 30.7743L26.319 26.221ZM29.0323 49.7818C29.0323 49.725 29.0371 49.6682 29.0468 49.6125L29.6541 45.9677H38.7097V50.8064H30.0568C29.4919 50.8065 29.0323 50.3468 29.0323 49.7818ZM38.7097 53.2258H60.4838V55.6452H38.7097V53.2258ZM26.6129 65.3226C26.6129 61.3198 29.8681 58.0646 33.8709 58.0646H62.9033V60.484H38.6722C37.6644 59.734 36.4294 59.2743 35.0807 59.2743C31.7455 59.2743 29.0323 61.9877 29.0323 65.3226C29.0323 68.6576 31.7457 71.371 35.0807 71.371C37.3887 71.371 39.3739 70.0573 40.3936 68.1521L40.4263 68.2488C41.0493 70.1166 42.7901 71.371 44.7581 71.371C46.2122 71.371 47.5405 70.6827 48.3871 69.571C49.234 70.6827 50.5621 71.371 52.0162 71.371C53.4702 71.371 54.7985 70.6827 55.6452 69.571C56.492 70.6827 57.8201 71.371 59.2742 71.371C60.7282 71.371 62.0565 70.6827 62.9032 69.571V72.5807H33.871C29.8681 72.5807 26.6129 69.3254 26.6129 65.3226ZM65.3226 72.5807V58.0645C69.3255 58.0645 72.5807 61.3198 72.5807 65.3225C72.5807 69.3252 69.3254 72.5807 65.3226 72.5807Z" fill="#0EA422"/>
</g>
<defs>
<clipPath id="clip0_97_2184">
<rect width="75" height="75" fill="white"/>
</clipPath>
</defs>
</svg>
