<svg width="20" height="20" viewBox="0 0 20 20" fill="none" xmlns="http://www.w3.org/2000/svg">
<g clip-path="url(#clip0_97_651)">
<path d="M4.6875 10.3125C4.6875 10.6572 4.96781 10.9375 5.3125 10.9375V11.5625C5.3125 11.9072 5.59281 12.1875 5.9375 12.1875H7.1875C7.53219 12.1875 7.8125 11.9072 7.8125 11.5625V10.9375C8.15719 10.9375 8.4375 10.6572 8.4375 10.3125V9.6875H9.0625V9.0625H8.4375V8.4375C8.4375 8.09281 8.15719 7.8125 7.8125 7.8125H5.3125C4.96781 7.8125 4.6875 8.09281 4.6875 8.4375V9.0625H4.0625V9.6875H4.6875V10.3125ZM7.1875 11.5625H5.9375V10.9375H7.1875V11.5625ZM5.3125 8.4375H7.8125L7.81313 10.3125H5.3125V8.4375Z" fill="#0ABC22"/>
<path d="M18.0409 18.1066C17.8544 17.7956 17.5391 17.585 17.1875 17.5219V12.6484C18.2781 12.2612 19.0625 11.2219 19.0625 10V9.0625C19.0625 8.71781 18.7822 8.4375 18.4375 8.4375H14.0625V7.8125H13.4375V8.4375H12.8125V5.9375C12.8125 5.59281 13.0928 5.3125 13.4375 5.3125C13.7822 5.3125 14.0625 5.59281 14.0625 5.9375V6.5625H14.6875V5.9375C14.6875 5.24812 14.1269 4.6875 13.4375 4.6875C12.7481 4.6875 12.1875 5.24812 12.1875 5.9375V8.4375H10.9375C10.5928 8.4375 10.3125 8.71781 10.3125 9.0625V10C10.3125 11.2219 11.0969 12.2612 12.1875 12.6484V17.5219C11.8359 17.585 11.5206 17.7959 11.3341 18.1066L10.7606 19.0625H6.50063L6.06063 17.0828L7.21126 17.0109C8.60001 16.9241 9.68751 15.7662 9.68751 14.375C9.68751 13.8581 9.26688 13.4375 8.75001 13.4375H3.6972L2.51438 7.075C2.45938 6.77781 2.19813 6.5625 1.89282 6.5625H0.944385C0.754697 6.5625 0.576572 6.64594 0.455947 6.79062C0.33751 6.93312 0.289072 7.11906 0.32251 7.30031L1.52688 13.7784V19.0625H0.31251V19.6875H19.375V19.0625H18.6144L18.0409 18.1066ZM10.9375 10V9.0625H18.4375V10C18.4375 11.2059 17.4559 12.1875 16.25 12.1875H13.125C11.9191 12.1875 10.9375 11.2059 10.9375 10ZM13.125 12.8125H16.25C16.3556 12.8125 16.4597 12.8056 16.5625 12.7941V17.5H12.8125V12.7941C12.9153 12.8056 13.0194 12.8125 13.125 12.8125ZM11.8697 18.4284C11.9822 18.2413 12.1875 18.125 12.4056 18.125H16.9694C17.1875 18.125 17.3928 18.2413 17.5053 18.4284L17.8856 19.0625H11.4894L11.8697 18.4284ZM9.06251 14.375C9.06251 14.4812 9.05188 14.5853 9.03595 14.6875H2.15251V14.0625H8.75001C8.92251 14.0625 9.06251 14.2025 9.06251 14.375ZM0.944385 7.1875L1.8997 7.18875L3.06157 13.4375H2.09501L0.944385 7.1875ZM2.15251 15.3125H8.8297C8.51095 15.9156 7.89532 16.3419 7.1722 16.3869L4.35532 16.5628L4.39438 17.1866L5.42907 17.1219L5.86032 19.0625H2.15251V15.3125Z" fill="#0ABC22"/>
<path d="M19.0625 0.3125H10.3125C9.96781 0.3125 9.6875 0.592812 9.6875 0.9375V5.9375C9.6875 6.28219 9.96781 6.5625 10.3125 6.5625H11.5625V5.9375H10.3125V0.9375H19.0625V5.9375H15.3125V6.5625H19.0625C19.4072 6.5625 19.6875 6.28219 19.6875 5.9375V0.9375C19.6875 0.592812 19.4072 0.3125 19.0625 0.3125Z" fill="#0ABC22"/>
<path d="M11.9648 3.34692L12.4068 2.90498L13.3444 3.84256L12.9024 4.2845L11.9648 3.34692Z" fill="#0ABC22"/>
<path d="M13.2148 2.09741L13.6567 1.65554L16.1564 4.15522L15.7145 4.5971L13.2148 2.09741Z" fill="#0ABC22"/>
<path d="M15.4022 2.09741L15.8441 1.65554L17.4063 3.21779L16.9645 3.65966L15.4022 2.09741Z" fill="#0ABC22"/>
</g>
<defs>
<clipPath id="clip0_97_651">
<rect width="20" height="20" fill="white"/>
</clipPath>
</defs>
</svg>
