<svg width="20" height="20" viewBox="0 0 20 20" fill="none" xmlns="http://www.w3.org/2000/svg">
<path d="M2.64688 11.5363C2.59219 11.4819 2.5168 11.4507 2.43985 11.4507C2.36251 11.4507 2.28712 11.4819 2.23243 11.5363C2.17813 11.591 2.14688 11.6663 2.14688 11.7437C2.14688 11.8206 2.17813 11.8964 2.23243 11.9507C2.28712 12.0054 2.36251 12.0366 2.43985 12.0366C2.5168 12.0366 2.59219 12.0054 2.64688 11.9507C2.70157 11.8964 2.73282 11.8206 2.73282 11.7437C2.73282 11.6663 2.70157 11.5909 2.64688 11.5363Z" fill="#4EAAFF"/>
<path d="M19.5117 10.7041H18.719V10.1423C18.719 9.87306 18.5 9.65403 18.2307 9.65403H18.0189V8.1661H19.1617C19.3055 8.1661 19.4352 8.10364 19.5177 7.99474C19.6001 7.88583 19.625 7.74399 19.586 7.60563L18.9407 5.31864C18.8762 5.08981 18.6482 4.91724 18.4104 4.91724H17.0415C16.8037 4.91724 16.5757 5.08978 16.5112 5.31864L15.866 7.60567C15.827 7.74403 15.8518 7.88587 15.9343 7.99478C16.0167 8.10368 16.1464 8.16614 16.2902 8.16614H17.433V9.65407H17.2212C16.952 9.65407 16.7329 9.8731 16.7329 10.1424V10.7042H16.0538V9.93239C16.0538 9.66313 15.8348 9.44411 15.5655 9.44411H7.65625C7.49445 9.44411 7.36328 9.57528 7.36328 9.73708C7.36328 9.89888 7.49445 10.03 7.65625 10.03H15.4679V12.1975H15.0576V11.7697C15.0576 11.285 14.6633 10.8908 14.1787 10.8908H11.1408C10.6561 10.8908 10.2619 11.285 10.2619 11.7697V12.1975H9.8598V11.7697C9.8598 11.285 9.46555 10.8908 8.9809 10.8908H5.94301C5.45836 10.8908 5.0641 11.285 5.0641 11.7697V12.1975H4.53207V10.03H6.32809C6.48988 10.03 6.62105 9.89888 6.62105 9.73708C6.62105 9.57528 6.48988 9.44411 6.32809 9.44411H4.43441C4.16516 9.44411 3.94613 9.66313 3.94613 9.93239V10.7042H3.26703V10.1424C3.26703 9.87314 3.04801 9.65411 2.77875 9.65411H2.56699V8.1661H3.70973C3.85352 8.1661 3.98324 8.10364 4.0657 7.99474C4.14813 7.88583 4.17305 7.74399 4.13398 7.60563L3.48879 5.31864C3.42426 5.08981 3.19625 4.91724 2.95848 4.91724H1.58953C1.35176 4.91724 1.12379 5.08978 1.05922 5.31864L0.414062 7.60563C0.375039 7.74399 0.399922 7.88583 0.482344 7.99474C0.564766 8.10364 0.694531 8.1661 0.83832 8.1661H1.98105V9.65407H1.76934C1.50008 9.65407 1.28105 9.8731 1.28105 10.1424V10.7041H0.488281C0.219023 10.7041 0 10.9231 0 11.1924V12.5371V14.7219C0 14.9911 0.219023 15.2102 0.488281 15.2102H2.47344V17.102C2.47344 17.3713 2.69246 17.5903 2.96172 17.5903H4.30371C4.57297 17.5903 4.79199 17.3713 4.79199 17.102V16.1591H12.0703C12.2321 16.1591 12.3633 16.0279 12.3633 15.8661C12.3633 15.7043 12.2321 15.5732 12.0703 15.5732H4.69434C4.42508 15.5732 4.20605 15.7922 4.20605 16.0615V17.0043H3.05938V14.4168H16.9407V17.0043H15.794V16.0615C15.794 15.7922 15.575 15.5732 15.3057 15.5732H13.4766C13.3148 15.5732 13.1836 15.7043 13.1836 15.8661C13.1836 16.0279 13.3148 16.1591 13.4766 16.1591H15.208V17.102C15.208 17.3713 15.4271 17.5903 15.6963 17.5903H17.0383C17.3075 17.5903 17.5266 17.3713 17.5266 17.102V15.2102H19.5117C19.781 15.2102 20 14.9911 20 14.7219V11.1924C20 10.9232 19.781 10.7041 19.5117 10.7041ZM16.482 7.58017L17.0679 5.50314H18.384L18.97 7.58017H16.482ZM17.3189 10.24H18.1331V10.6808H17.3189V10.24ZM10.8479 11.7697C10.8479 11.6081 10.9793 11.4767 11.1408 11.4767H14.1787C14.3403 11.4767 14.4717 11.6081 14.4717 11.7697V12.1975H10.8479V11.7697ZM5.94301 11.4767H8.9809C9.14242 11.4767 9.27387 11.6081 9.27387 11.7697V12.1975H5.65004V11.7697C5.65004 11.6081 5.78148 11.4767 5.94301 11.4767ZM1.03004 7.58017L1.61598 5.50317H2.93199L3.51797 7.58017H1.03004ZM1.86695 10.24H2.68109V10.6808H1.86695V10.24ZM2.81992 13.0764V13.852C2.61965 13.9129 2.4734 14.0992 2.4734 14.3191V14.6242H0.585938V12.8301H2.85531C2.83242 12.9083 2.81992 12.9909 2.81992 13.0764ZM0.585938 12.2442V11.29H3.94613V12.1975H3.69883C3.6002 12.1975 3.50543 12.214 3.41684 12.2442H0.585938ZM16.5941 13.8309H3.40586V13.0764C3.40586 12.9149 3.5373 12.7834 3.69883 12.7834H16.3012C16.4627 12.7834 16.5941 12.9149 16.5941 13.0764V13.8309ZM19.4141 14.6242H17.5266V14.3191C17.5266 14.0992 17.3804 13.9129 17.1801 13.852V13.0764C17.1801 12.9909 17.1676 12.9083 17.1447 12.8301H19.4141V14.6242ZM19.4141 12.2442H16.5832C16.4946 12.214 16.3998 12.1975 16.3012 12.1975H16.0539V11.29H19.4141V12.2442Z" fill="#4EAAFF"/>
<path d="M17.7676 11.5366C17.7129 11.4819 17.6375 11.4507 17.5602 11.4507C17.4832 11.4507 17.4078 11.4819 17.3531 11.5366C17.2984 11.5909 17.2672 11.6663 17.2672 11.7437C17.2672 11.8206 17.2984 11.896 17.3531 11.9507C17.4074 12.0054 17.4832 12.0366 17.5602 12.0366C17.6375 12.0366 17.7129 12.0054 17.7676 11.9507C17.8219 11.896 17.8531 11.8206 17.8531 11.7437C17.8531 11.6667 17.8219 11.5909 17.7676 11.5366Z" fill="#4EAAFF"/>
<path d="M14.3402 3.96495C14.502 3.96495 14.6331 3.83378 14.6331 3.67198V2.89819C14.6331 2.62894 14.4141 2.40991 14.1449 2.40991H5.85516C5.58591 2.40991 5.36688 2.62894 5.36688 2.89819V7.24226C5.36688 7.51151 5.58591 7.73054 5.85516 7.73054H14.1449C14.4141 7.73054 14.6331 7.51151 14.6331 7.24226V5.00011C14.6331 4.83831 14.502 4.70714 14.3402 4.70714C14.1784 4.70714 14.0472 4.83831 14.0472 5.00011V5.82925L12.6622 3.43034C12.6098 3.33972 12.5131 3.28386 12.4084 3.28386C12.3038 3.28386 12.2071 3.33972 12.1547 3.43034L10.9081 5.58964L10.0386 4.0837C10.0382 4.08296 10.0377 4.08233 10.0372 4.08159C10.0124 4.03937 9.97684 4.00269 9.93141 3.97647C9.79126 3.89554 9.61212 3.94358 9.53122 4.0837L7.76399 7.14464H5.95282V2.99585H14.0472V3.67198C14.0472 3.83378 14.1784 3.96495 14.3402 3.96495ZM12.4084 4.16276L14.0472 7.00112V7.14464H10.6869L12.4084 4.16276ZM9.78493 4.81612L10.5698 6.17558L10.0103 7.14464H8.44055L9.78493 4.81612Z" fill="#4EAAFF"/>
<path d="M7.52661 3.33032C6.97907 3.33028 6.5336 3.77575 6.5336 4.32333C6.5336 4.87087 6.97907 5.3163 7.52661 5.3163C8.07415 5.3163 8.51958 4.87087 8.51958 4.32333C8.51958 3.77575 8.07415 3.33032 7.52661 3.33032ZM7.52661 4.73036C7.30215 4.73036 7.11954 4.54774 7.11954 4.32333C7.11954 4.09884 7.30215 3.91626 7.52661 3.91626C7.75102 3.91622 7.93364 4.09884 7.93364 4.32333C7.93364 4.54778 7.75102 4.73036 7.52661 4.73036Z" fill="#4EAAFF"/>
</svg>
