<svg width="44" height="44" viewBox="0 0 44 44" fill="none" xmlns="http://www.w3.org/2000/svg">
<path d="M29.3333 3.6665H14.6667C9.60667 3.6665 5.5 7.77317 5.5 12.8332V31.1665C5.5 36.2265 9.60667 40.3332 14.6667 40.3332H29.3333C34.3933 40.3332 38.5 36.2265 38.5 31.1665V12.8332C38.5 7.77317 34.3933 3.6665 29.3333 3.6665ZM16.2433 34.1548C15.895 34.5032 15.4367 34.6865 14.96 34.6865C14.465 34.6865 14.0067 34.5032 13.6583 34.1548C13.31 33.8065 13.1083 33.3482 13.1083 32.8532C13.1083 32.3765 13.31 31.8998 13.6583 31.5515C13.8233 31.3865 14.025 31.2582 14.245 31.1665C14.7033 30.9832 15.1983 30.9832 15.6567 31.1665C15.7667 31.2032 15.8767 31.2582 15.9683 31.3315C16.0783 31.3865 16.17 31.4782 16.2433 31.5515C16.5917 31.8998 16.7933 32.3765 16.7933 32.8532C16.7933 33.3482 16.5917 33.8065 16.2433 34.1548ZM13.1083 25.5198C13.1083 25.2815 13.1633 25.0432 13.255 24.8232C13.3467 24.5848 13.475 24.4015 13.6583 24.2182C14.08 23.7965 14.7217 23.5948 15.3083 23.7232C15.4183 23.7415 15.5467 23.7782 15.6567 23.8332C15.7667 23.8698 15.8767 23.9248 15.9683 23.9982C16.0783 24.0532 16.17 24.1448 16.2433 24.2182C16.4083 24.4015 16.555 24.5848 16.6467 24.8232C16.7383 25.0432 16.775 25.2815 16.775 25.5198C16.775 26.0148 16.5917 26.4732 16.2433 26.8215C15.895 27.1698 15.4367 27.3532 14.96 27.3532C14.7033 27.3532 14.465 27.2982 14.245 27.2065C14.025 27.1148 13.8233 26.9865 13.6583 26.8215C13.31 26.4732 13.1083 26.0148 13.1083 25.5198ZM23.5767 34.1548C23.4117 34.3198 23.21 34.4482 22.99 34.5398C22.77 34.6315 22.5317 34.6865 22.275 34.6865C21.7983 34.6865 21.34 34.5032 20.9917 34.1548C20.6433 33.8065 20.4417 33.3482 20.4417 32.8532C20.4417 32.7248 20.46 32.6148 20.4783 32.4865C20.515 32.3765 20.5517 32.2665 20.5883 32.1565C20.6433 32.0465 20.6983 31.9365 20.7533 31.8265C20.8267 31.7348 20.9 31.6432 20.9917 31.5515C21.1567 31.3865 21.3583 31.2582 21.5783 31.1665C22.2567 30.8915 23.0633 31.0382 23.5767 31.5515C23.925 31.8998 24.1083 32.3765 24.1083 32.8532C24.1083 33.3482 23.925 33.8065 23.5767 34.1548ZM23.5767 26.8215C23.2283 27.1698 22.77 27.3532 22.275 27.3532C21.7983 27.3532 21.34 27.1698 20.9917 26.8215C20.6433 26.4732 20.4417 26.0148 20.4417 25.5198C20.4417 25.0432 20.6433 24.5665 20.9917 24.2182C21.67 23.5398 22.8983 23.5398 23.5767 24.2182C23.7417 24.4015 23.8883 24.5848 23.98 24.8232C24.0717 25.0432 24.1083 25.2815 24.1083 25.5198C24.1083 26.0148 23.925 26.4732 23.5767 26.8215ZM16.5 19.1765C14.6117 19.1765 13.0533 17.6365 13.0533 15.7298V13.8965C13.0533 12.0082 14.5933 10.4498 16.5 10.4498H27.5C29.3883 10.4498 30.9467 11.9898 30.9467 13.8965V15.7298C30.9467 17.6182 29.4067 19.1765 27.5 19.1765H16.5ZM30.91 34.1548C30.5617 34.5032 30.1033 34.6865 29.6083 34.6865C29.37 34.6865 29.1317 34.6315 28.9117 34.5398C28.6917 34.4482 28.49 34.3198 28.325 34.1548C27.9767 33.8065 27.7933 33.3482 27.7933 32.8532C27.7933 32.3765 27.9767 31.8998 28.325 31.5515C28.82 31.0382 29.645 30.8915 30.3233 31.1665C30.5433 31.2582 30.745 31.3865 30.91 31.5515C31.2583 31.8998 31.4417 32.3765 31.4417 32.8532C31.4417 33.3482 31.2583 33.8065 30.91 34.1548ZM31.3133 26.2165C31.2217 26.4365 31.0933 26.6382 30.91 26.8215C30.5617 27.1698 30.1033 27.3532 29.6083 27.3532C29.1317 27.3532 28.6733 27.1698 28.325 26.8215C27.9767 26.4732 27.775 26.0148 27.775 25.5198C27.775 25.0432 27.9767 24.5665 28.325 24.2182C29.0033 23.5398 30.2317 23.5398 30.91 24.2182C31.2583 24.5665 31.46 25.0432 31.46 25.5198C31.46 25.7582 31.405 25.9965 31.3133 26.2165Z" fill="white"/>
</svg>
