<svg width="114" height="40" viewBox="0 0 114 40" fill="none" xmlns="http://www.w3.org/2000/svg">
	<g clip-path="url(#clip0)">
		<path d="M36.8097 -0.00043465V0.00696731L33.2482 3.53688V-0.00043465H29.6855V-5.78121e-05V-0.00043465L23.749 5.88179V21.1758H26.1236V7.05864L30.8733 2.35263V21.1758H33.2482V7.05864L37.9971 2.35263V21.1758H40.372V-0.00043465H36.8097Z" fill="#1E2321"/>
		<path d="M0.00143477 21.1758H9.50059V-0.000436222H5.93786V6.6229e-05L5.93752 -0.00106429L0 5.88192L0.00143477 5.88329V21.1758ZM7.12566 2.35263V18.8228H2.37632V7.05839L7.12566 2.35263" fill="#1E2321"/>
		<path d="M21.3738 -0.00030118H11.875V21.1758H21.3738V-0.00030118ZM14.2495 2.35264H18.999V18.8231H14.2495V2.35264Z" fill="#1E2321"/>
		<path d="M0.00195312 25.8828H40.3726V23.5297H0.00195312V25.8828Z" fill="#1E2321"/>
		<path d="M0.00195312 28.2356V40H2.37684V37.6473H16.6253V28.2356H0.00195312ZM14.2505 35.2943H2.37684V30.5886H14.2505V35.2943Z" fill="#1E2321"/>
		<path d="M19 28.2356V37.6473H28.4992V40H30.8737V37.6473H40.3728V28.2356H19ZM21.3745 30.5886H28.4988V35.2943H21.3745V30.5886ZM37.9979 35.2943H30.8737V30.5886H37.9979V35.2943" fill="#1E2321"/>
		<path d="M77.8951 26.4688H73.6279V15.883H80.6791V17.7262H75.7096V19.8666H77.8951C80.0361 19.8666 81.3524 21.2361 81.3524 23.1679C81.3524 25.1014 80.0508 26.4688 77.8951 26.4688V26.4688ZM77.7905 21.7113H75.7096V24.6263H77.7905C78.7183 24.6263 79.272 24.0463 79.272 23.1679C79.272 22.3064 78.7183 21.7113 77.7905 21.7113Z" fill="#1E2321"/>
		<path d="M90.2493 26.4688L89.6198 24.5963H85.8325L85.188 26.4688H83.0186L86.8957 15.883H88.5271L92.4194 26.4688H90.2493ZM87.7637 19.0055L86.4163 22.856H89.0655L87.7637 19.0055Z" fill="#1E2321"/>
		<path d="M100.291 26.4688V22.0372H96.6836V26.4688H94.6035V15.883H96.6836V20.2088H100.291V15.883H102.373V26.4688H100.291Z" fill="#1E2321"/>
		<path d="M105.632 26.4688V15.883H107.712V20.9087L111.156 15.883H113.642L110.063 20.8498L114 26.4688H111.456L107.712 20.9376V26.4688H105.632Z" fill="#1E2321"/>
		<path d="M59.3695 39.9961H56.9951V0.00563183H59.3695V39.9961Z" fill="#7FCB2C"/>
	</g>
	<defs>
		<clipPath id="clip0">
			<rect width="114" height="40" fill="white"/>
		</clipPath>
	</defs>
</svg>
