<svg width="53" height="53" viewBox="0 0 53 53" fill="none" xmlns="http://www.w3.org/2000/svg">
<path d="M51.9426 49.2138H50.7201V22.4573L51.3633 22.7575C51.5056 22.8239 51.6582 22.8566 51.8103 22.8566C52.0086 22.8566 52.2059 22.801 52.3784 22.6912C52.6832 22.497 52.8678 22.1606 52.8678 21.7993V17.552C52.8678 17.1412 52.6299 16.7676 52.2576 16.5938L48.6165 14.8946V8.02641C48.6165 7.44248 48.143 6.96905 47.5591 6.96905H41.27C40.686 6.96905 40.2126 7.44248 40.2126 8.02641V10.9731L20.4928 1.77109C20.184 1.62702 19.8248 1.6405 19.5279 1.8073L0.539516 12.4726C0.206317 12.6599 0 13.0122 0 13.3945V17.6417C0 18.0172 0.19918 18.3646 0.523259 18.5544C0.847471 18.744 1.24781 18.7476 1.5752 18.5638L2.14776 18.2422V49.2139H1.10137C0.517444 49.2139 0.0440125 49.6873 0.0440125 50.2712C0.0440125 50.8552 0.517444 51.3286 1.10137 51.3286H3.20511H49.6627H51.9426C52.5266 51.3286 53 50.8552 53 50.2712C53 49.6873 52.5266 49.2138 51.9426 49.2138ZM42.3273 11.9228V9.08376H46.5016V13.908L42.3255 11.9591C42.3259 11.947 42.3273 11.9351 42.3273 11.9228ZM2.11471 14.0133L20.0903 3.91686L50.7531 18.2255V20.1392L20.4928 6.01836C20.3508 5.95201 20.1982 5.9191 20.0458 5.9191C19.8668 5.9191 19.6882 5.96456 19.5279 6.05457L2.11471 15.8351V14.0133ZM4.26247 49.2138V17.0893C4.26247 17.0778 4.26115 17.0667 4.26075 17.0552L20.0903 8.164L48.6054 21.4704V49.2138H4.26247Z" fill="#44C054"/>
<path d="M24.3192 31.2471H7.44551C6.86158 31.2471 6.38815 31.7205 6.38815 32.3044V46.0584C6.38815 46.6423 6.86158 47.1157 7.44551 47.1157H24.3192C24.9031 47.1157 25.3766 46.6423 25.3766 46.0584V32.3044C25.3766 31.7205 24.9031 31.2471 24.3192 31.2471ZM8.50287 33.3618H14.8249V45.001H8.50287V33.3618ZM23.2618 45.001H16.9398V33.3618H23.2618V45.001Z" fill="#44C054"/>
<path d="M45.4663 31.2471H28.5486C27.9647 31.2471 27.4913 31.7205 27.4913 32.3044V46.0584C27.4913 46.6423 27.9647 47.1157 28.5486 47.1157H45.4663C46.0503 47.1157 46.5237 46.6423 46.5237 46.0584V32.3044C46.5237 31.7205 46.0503 31.2471 45.4663 31.2471ZM29.606 33.3618H35.9501V45.001H29.606V33.3618ZM44.409 45.001H38.0648V33.3618H44.409V45.001Z" fill="#44C054"/>
<path d="M45.9135 22.78L29.0724 14.9212C28.9142 14.8474 28.7474 14.816 28.5841 14.8226C27.9898 14.8025 27.4913 15.2836 27.4913 15.8795V28.1052C27.4913 28.6891 27.9647 29.1625 28.5486 29.1625H45.4663C46.0503 29.1625 46.5237 28.6891 46.5237 28.1052V23.7383C46.5237 23.3274 46.2858 22.9538 45.9135 22.78ZM29.606 17.5038L35.9501 20.4643V27.0477H29.606V17.5038ZM44.409 27.0478H38.0648V21.4512L44.409 24.4117V27.0478Z" fill="#44C054"/>
<path d="M25.3721 13.7814C25.3707 13.7658 25.3689 13.7504 25.367 13.735C25.3648 13.7173 25.3622 13.6995 25.359 13.682C25.3557 13.6639 25.352 13.6459 25.3477 13.628C25.3443 13.6136 25.3407 13.5994 25.3366 13.5851C25.3312 13.5655 25.3253 13.5464 25.3187 13.5272C25.3143 13.5144 25.3095 13.5017 25.3047 13.489C25.2973 13.47 25.2896 13.4513 25.2811 13.4328C25.2752 13.4199 25.269 13.4071 25.2625 13.3942C25.2539 13.3773 25.2452 13.3607 25.2357 13.3443C25.2276 13.3301 25.2191 13.3164 25.2104 13.3026C25.2014 13.2885 25.1923 13.2746 25.1827 13.261C25.1721 13.2459 25.161 13.2313 25.1495 13.2167C25.1404 13.2051 25.1311 13.1937 25.1216 13.1825C25.1088 13.1674 25.0954 13.1529 25.0816 13.1385C25.0718 13.1283 25.062 13.1184 25.0518 13.1086C25.0377 13.095 25.023 13.0818 25.0081 13.0688C24.9964 13.0589 24.9847 13.0493 24.9728 13.0398C24.9586 13.0287 24.9444 13.0179 24.9297 13.0075C24.9148 12.9969 24.8996 12.9869 24.8841 12.9771C24.8713 12.969 24.8585 12.9611 24.8452 12.9534C24.8265 12.9426 24.8072 12.9326 24.7876 12.9229C24.7803 12.9193 24.7737 12.9151 24.7665 12.9117L21.1097 11.2054C20.7457 11.0355 20.3343 11.0908 20.0327 11.3141C20.0138 11.3234 19.9947 11.3319 19.9761 11.3423L6.9278 18.6712C6.57544 18.8692 6.38062 19.2388 6.38855 19.6165C6.38855 19.6192 6.38815 19.6217 6.38815 19.6243V28.1052C6.38815 28.6892 6.86158 29.1626 7.44551 29.1626H24.3192C24.9031 29.1626 25.3766 28.6892 25.3766 28.1052V13.8699C25.3766 13.8616 25.3755 13.8535 25.3754 13.8452C25.3748 13.8239 25.3739 13.8026 25.3721 13.7814ZM8.50287 20.2119L14.8249 16.6609V27.0477H8.50287V20.2119ZM16.9398 27.0477V15.4731L20.713 13.3538L23.262 14.5433V27.0476L16.9398 27.0477Z" fill="#44C054"/>
</svg>
