<svg width="60" height="60" viewBox="0 0 60 60" fill="none" xmlns="http://www.w3.org/2000/svg">
<g clip-path="url(#clip0_97_305)">
<path d="M10.875 34.1249C10.5 34.1249 10.0313 33.8436 9.9375 33.3749L8.71875 28.4999C8.625 28.0311 8.90625 27.4686 9.375 27.3749C9.84375 27.2811 10.4063 27.5624 10.5 28.0311L11.7188 32.9061C11.8125 33.3749 11.5313 33.9374 11.0625 34.0311C11.0625 34.1249 10.9688 34.1249 10.875 34.1249Z" fill="#44C054"/>
<path d="M8.34375 34.1249H4.125C2.71875 34.1249 1.5 33.4686 0.656251 32.3436C-0.0937495 31.3124 -0.187499 30.0936 0.187501 28.8748C1.03125 26.7186 3.46875 25.7811 7.59375 26.0623C8.8125 26.1561 9.9375 26.8124 10.4063 27.8436C10.9688 28.7811 10.6875 29.5311 10.5 29.9061C9.9375 30.9374 8.53125 31.4061 6 31.4998C5.53125 31.4998 5.0625 31.1248 5.0625 30.5623C5.0625 29.9998 5.4375 29.6249 6 29.6249C8.4375 29.5311 8.8125 29.0624 8.90625 28.9686C8.90625 28.9686 8.90625 28.8749 8.8125 28.6874C8.53125 28.2186 8.0625 27.9373 7.5 27.9373C5.34375 27.7498 2.625 27.9374 2.0625 29.5311C1.78125 30.2811 2.0625 30.9374 2.34375 31.2186C2.8125 31.7811 3.46875 32.1561 4.21875 32.1561H8.4375C9 32.1561 9.375 32.6249 9.375 33.0936C9.375 33.5624 8.90625 34.1249 8.34375 34.1249Z" fill="#44C054"/>
<path d="M49.125 34.125C49.0313 34.125 48.9375 34.125 48.8437 34.125C48.375 34.0312 48 33.4687 48.1875 33L49.4062 28.125C49.5 27.6562 50.0625 27.2812 50.5313 27.4687C51 27.5625 51.375 28.125 51.1875 28.5937L49.9687 33.4687C49.9687 33.8437 49.5 34.125 49.125 34.125Z" fill="#44C054"/>
<path d="M55.875 34.1249H51.6562C51.0937 34.1249 50.7187 33.6561 50.7187 33.1874C50.7187 32.7186 51.1875 32.2499 51.6562 32.2499H55.875C56.625 32.2499 57.375 31.8749 57.75 31.3124C57.9375 31.0311 58.3125 30.3749 58.0313 29.6249C57.4688 28.0311 54.75 27.8436 52.5937 28.0311C52.0312 28.0311 51.4688 28.4061 51.2813 28.7811C51.1875 28.9686 51.1875 29.0624 51.1875 29.0624C51.1875 29.0624 51.5625 29.6249 54.1875 29.7186C54.75 29.7186 55.125 30.1874 55.125 30.6561C55.125 31.2186 54.6563 31.5936 54.1875 31.5936C51.6563 31.4999 50.25 31.0311 49.6875 29.9999C49.5 29.6249 49.2187 28.8748 49.7812 27.9373C50.3437 26.9061 51.375 26.2498 52.5937 26.1561C56.7188 25.8748 59.1563 26.8123 60 28.9686C60.4688 30.0936 60.2813 31.4061 59.5313 32.4373C58.5 33.4686 57.2812 34.1249 55.875 34.1249Z" fill="#44C054"/>
<path d="M4.6875 41.2502C4.3125 41.2502 3.9375 41.0627 3.84375 40.6877L0.562501 32.1564C0.375001 31.6877 0.562501 31.2189 1.03125 30.9377C1.5 30.7502 1.96875 30.8439 2.25 31.2189C2.625 31.8752 3.375 32.2502 4.125 32.2502H55.875C56.625 32.2502 57.375 31.8752 57.75 31.2189C58.0312 30.8439 58.5 30.6564 58.9688 30.9377C59.4375 31.1252 59.625 31.6877 59.4375 32.1564L56.1563 40.6877C55.9688 41.1564 55.4062 41.4377 54.9375 41.2502C54.4688 41.0627 54.1875 40.5002 54.375 40.0314L56.625 34.1252C56.3438 34.2189 56.0625 34.2189 55.7813 34.2189H4.125C3.84375 34.2189 3.5625 34.2189 3.28125 34.1252L5.53125 40.0314C5.71875 40.5002 5.4375 41.0627 4.96875 41.2502C4.96875 41.2502 4.78125 41.2502 4.6875 41.2502Z" fill="#44C054"/>
<path d="M45.75 59.1564H14.25C12.2812 59.1564 10.5 57.9376 9.75 56.0626L9.65625 55.6876C9.46875 55.2189 9.75 54.6564 10.2187 54.4689C10.6875 54.2814 11.25 54.5626 11.4375 55.0314L11.5312 55.4064C11.9062 56.5314 13.0312 57.2814 14.25 57.2814H45.75C46.9687 57.2814 48 56.5314 48.4687 55.4064L48.5625 55.1251C48.75 54.6564 49.3125 54.3751 49.7812 54.5626C50.25 54.7501 50.5312 55.3126 50.3437 55.7814L50.25 56.1564C49.5937 57.9376 47.7187 59.1564 45.75 59.1564Z" fill="#44C054"/>
<path d="M10.5 53.5312C6.09375 53.5312 3.1875 50.4375 2.625 45.1875C2.53125 44.4375 2.8125 43.6875 3.28125 43.125C3.9375 42.375 4.96875 42 6 42.2812C6.46875 42.375 7.03125 42.375 7.59375 42.2812C8.15625 42.1875 8.71875 42.0938 9.28125 41.9063C10.2187 41.7188 11.1562 41.5312 12.0937 41.5312C13.9688 41.5312 15.1875 42.5625 15.6563 44.625C16.3125 47.625 15.9375 50.25 14.7188 51.8438C13.7812 52.875 12.375 53.5312 10.5 53.5312ZM5.53125 44.0625C5.25 44.0625 4.96875 44.1563 4.78125 44.4375C4.6875 44.4375 4.5 44.7188 4.59375 45C4.875 47.5313 5.90625 51.6562 10.5938 51.6562C11.8125 51.6562 12.75 51.2813 13.3125 50.5313C14.25 49.4063 14.4375 47.25 13.9688 44.9063C13.6875 43.4063 13.0312 43.3125 12.2812 43.3125C11.625 43.3125 10.7812 43.5 9.9375 43.6875C9.375 43.7812 8.71875 43.9688 8.15625 44.0625C7.3125 44.1563 6.5625 44.1563 5.8125 44.0625C5.71875 44.0625 5.625 44.0625 5.53125 44.0625Z" fill="#44C054"/>
<path d="M49.5 53.5312C47.7188 53.5312 46.2188 52.875 45.2813 51.6562C43.9688 50.0625 43.5938 47.4375 44.3438 44.4375C44.8125 42.375 45.9375 41.3438 47.9063 41.3438C48.75 41.3438 49.6875 41.5313 50.7188 41.7188C51.2813 41.8125 51.8438 42 52.4063 42.0938C53.0625 42.1875 53.625 42.1875 54 42.0938C55.125 41.9063 56.0625 42.1875 56.8125 42.9375C57.375 43.5 57.5625 44.25 57.4688 45C56.8125 50.4375 53.9063 53.5312 49.5 53.5312ZM47.8125 43.3125C47.0625 43.3125 46.4063 43.4063 46.125 44.9063C45.5625 47.25 45.8438 49.4063 46.7813 50.5313C47.3438 51.2813 48.2813 51.6562 49.5 51.6562C54.1875 51.6562 55.2188 47.4375 55.5 45C55.5 44.7188 55.4063 44.4375 55.3125 44.3438C55.0313 44.0625 54.6563 43.9688 54.2813 44.0625C53.625 44.25 52.7813 44.25 51.9375 44.0625C51.375 43.9688 50.7188 43.875 50.1563 43.6875C49.2188 43.5 48.4688 43.3125 47.8125 43.3125Z" fill="#44C054"/>
<path d="M30 30.0938C24.6562 30.0938 20.25 25.6875 20.25 20.3438C20.25 19.6875 20.3437 19.0313 20.4375 18.375C20.5312 17.9063 20.9062 17.625 21.375 17.625H38.625C39.0938 17.625 39.4688 17.9063 39.5625 18.375C39.6562 19.0313 39.75 19.7813 39.75 20.3438C39.75 25.7813 35.3437 30.0938 30 30.0938ZM22.2188 19.5C22.2188 19.7813 22.125 20.0625 22.125 20.3438C22.125 24.6563 25.6875 28.2188 30 28.2188C34.3125 28.2188 37.875 24.6563 37.875 20.3438C37.875 20.0625 37.875 19.7813 37.7812 19.5H22.2188Z" fill="#44C054"/>
<path d="M41.4375 19.5H18.6563C18 19.5 17.4375 19.2188 17.0625 18.6563C16.6875 18.1875 16.5938 17.5313 16.875 16.9688C17.1563 16.3125 17.4375 15.75 18 15.2812C18.8438 14.4375 19.9688 13.9688 21.2813 13.9688H39C40.9688 13.9688 42.6563 15.1875 43.3125 17.0625C43.5 17.625 43.4063 18.2813 43.125 18.75C42.5625 19.2188 42 19.5 41.4375 19.5ZM21.0938 15.8438C20.3438 15.8438 19.6875 16.125 19.2188 16.5938C18.9375 16.875 18.75 17.25 18.5625 17.625L41.3438 17.5313C40.9688 16.5 39.9375 15.75 38.8125 15.75H21.0938V15.8438Z" fill="#44C054"/>
<path d="M39.8438 15.8438H20.1562C19.5937 15.8438 19.2188 15.4688 19.2188 14.9063V14.4375C19.2188 11.1563 20.7187 8.06255 23.3437 6.00005C23.7187 5.7188 24.375 5.7188 24.6562 6.18755C24.9375 6.56255 24.8438 7.12505 24.4688 7.50005C22.4063 9.0938 21.1875 11.4375 21.0938 14.0625H38.9062C38.8125 11.8125 37.875 9.75005 36.2812 8.25005C36.0938 8.06255 35.8125 7.7813 35.5313 7.5938C35.1563 7.31255 35.0625 6.6563 35.3438 6.2813C35.625 5.9063 36.2812 5.81255 36.6562 6.0938C37.0312 6.37505 37.3125 6.6563 37.5937 6.93755C39.6562 9.00005 40.7812 11.7188 40.7812 14.5313V15C40.7812 15.4688 40.4062 15.8438 39.8438 15.8438Z" fill="#44C054"/>
<path d="M32.3438 10.0313C31.7812 10.0313 31.4062 9.65625 31.4062 9.09375V4.125C31.4062 3.375 30.75 2.71875 30 2.71875C29.25 2.71875 28.5938 3.375 28.5938 4.125V9.09375C28.5938 9.65625 28.2188 10.0313 27.6562 10.0313C27.0937 10.0313 26.7188 9.65625 26.7188 9.09375V4.125C26.7188 2.34375 28.2188 0.84375 30 0.84375C31.7812 0.84375 33.2812 2.34375 33.2812 4.125V9.09375C33.2812 9.5625 32.9062 10.0313 32.3438 10.0313Z" fill="#44C054"/>
</g>
<defs>
<clipPath id="clip0_97_305">
<rect width="60" height="60" fill="white"/>
</clipPath>
</defs>
</svg>
