<svg width="404" height="331" viewBox="0 0 404 331" fill="none" xmlns="http://www.w3.org/2000/svg">
<path fill-rule="evenodd" clip-rule="evenodd" d="M8.6637 123.615L109.441 0.0511645L291.393 0L403.782 146.632L246.115 217.812L109.478 37.6522L0 146.783L109.463 24.7698L247.5 213.598L403.782 146.632L290.142 2.68333L114.57 7.48251L246.609 188.825L109.464 7.59455L8.6637 123.615Z" fill="black"/>
<path fill-rule="evenodd" clip-rule="evenodd" d="M108.977 102.924L137.628 108.087L137.67 170.519L109.915 162.422L129.47 167.115V110.19L110.426 104.95L109.14 162.278L108.977 102.924Z" fill="black"/>
<path fill-rule="evenodd" clip-rule="evenodd" d="M137.553 238.33L137.673 176.252L109.015 167.442L108.892 224.867L110.194 169.445L129.528 176.607L129.581 233.808L109.55 225.083L137.553 238.33Z" fill="black"/>
<path fill-rule="evenodd" clip-rule="evenodd" d="M82.4187 98.3862L103.717 102.097L103.904 160.788L96.4351 158.458L96.4039 103.712L83.5544 100.208L82.5284 154.224L82.4187 98.3862Z" fill="black"/>
<path fill-rule="evenodd" clip-rule="evenodd" d="M103.859 222.453L103.905 165.879L82.2878 159.273L82.2211 212.087L83.0346 160.619L96.5594 165.454L96.4872 219.248L103.859 222.453Z" fill="black"/>
<path fill-rule="evenodd" clip-rule="evenodd" d="M204.162 290.459L200.405 198.665L196.896 290.454L19.3325 205.462L200.329 303.949L378.049 205.441L204.162 290.459Z" fill="black"/>
<path fill-rule="evenodd" clip-rule="evenodd" d="M200.593 317.378L377.224 221.403L200.495 330.004L18.2916 221.403L200.593 317.378Z" fill="black"/>
</svg>
