<svg width="147" height="35" viewBox="0 0 147 35" fill="none" xmlns="http://www.w3.org/2000/svg">
<path d="M13.3096 1.46039V3.40661H7.82877V18.8303H5.72081V3.40661H0.193085V1.46039H13.3096ZM22.4692 1.14414C24.9212 1.14414 26.834 1.99561 28.2083 3.69853C29.5819 5.4015 30.2694 7.5504 30.2694 10.1453C30.2694 12.7403 29.5819 14.8892 28.2083 16.5922C26.834 18.2952 24.9212 19.1466 22.4692 19.1466C20.0022 19.1466 18.0816 18.3032 16.7073 16.6165C15.3486 14.9135 14.6698 12.7565 14.6698 10.1453C14.6698 7.53418 15.3486 5.38528 16.7073 3.69853C18.0816 1.99561 20.0022 1.14414 22.4692 1.14414ZM18.2299 15.1325C19.1821 16.4787 20.5956 17.1517 22.4692 17.1517C24.3434 17.1517 25.7563 16.4787 26.7091 15.1325C27.6612 13.7864 28.1376 12.124 28.1376 10.1453C28.1376 8.1667 27.6612 6.50432 26.7091 5.15817C25.7563 3.81209 24.3434 3.13898 22.4692 3.13898C20.5956 3.13898 19.1821 3.81209 18.2299 5.15817C17.2772 6.50432 16.8014 8.1667 16.8014 10.1453C16.8014 12.124 17.2772 13.7864 18.2299 15.1325ZM33.6976 1.46039H47.0951V18.8303H44.9875V3.45527H35.8059V18.8303H33.6976V1.46039ZM63.9342 16.8354H66.347V23.0876H64.2623V18.8303H51.5903V23.0876H49.5055V16.8354H51.2387C52.6444 13.754 53.3469 9.79663 53.3469 4.96358V1.46039H63.9342V16.8354ZM61.8496 16.8354V3.45527H55.3617V5.32847C55.3617 10.0643 54.7369 13.8999 53.4874 16.8354H61.8496ZM76.0627 1.14414C78.514 1.14414 80.4268 1.99561 81.8011 3.69853C83.1756 5.4015 83.8622 7.5504 83.8622 10.1453C83.8622 12.7403 83.1756 14.8892 81.8011 16.5922C80.4268 18.2952 78.514 19.1466 76.0627 19.1466C73.5951 19.1466 71.6744 18.3032 70.3008 16.6165C68.9423 14.9135 68.2626 12.7565 68.2626 10.1453C68.2626 7.53418 68.9423 5.38528 70.3008 3.69853C71.6744 1.99561 73.5951 1.14414 76.0627 1.14414ZM71.8229 15.1325C72.7756 16.4787 74.1885 17.1517 76.0627 17.1517C77.9364 17.1517 79.3499 16.4787 80.302 15.1325C81.2548 13.7864 81.7313 12.124 81.7313 10.1453C81.7313 8.1667 81.2548 6.50432 80.302 5.15817C79.3499 3.81209 77.9364 3.13898 76.0627 3.13898C74.1885 3.13898 72.7756 3.81209 71.8229 5.15817C70.8707 6.50432 70.3943 8.1667 70.3943 10.1453C70.3943 12.124 70.8707 13.7864 71.8229 15.1325ZM87.2907 18.8303V1.46039H90.804L95.0199 9.61011H95.5356L99.6813 1.46039H103.218V18.8303H101.157V3.94179H100.641L96.3551 12.1889H94.1536L89.8676 3.94179H89.3519V18.8303H87.2907ZM109.596 18.8303H107.161V16.0083H109.596V18.8303ZM113.527 1.46039H120.6C122.412 1.46039 123.81 1.91453 124.793 2.82275C125.777 3.73098 126.268 5.0041 126.268 6.64218C126.268 8.29648 125.777 9.58582 124.793 10.5102C123.81 11.4185 122.412 11.8726 120.6 11.8726H115.635V18.8303H113.527V1.46039ZM115.635 9.92641H120.25C122.841 9.92641 124.138 8.83974 124.138 6.66647C124.138 4.49328 122.841 3.40661 120.25 3.40661H115.635V9.92641ZM138.485 2.89572H138.765C141.123 2.89572 142.981 3.49579 144.34 4.69595C145.715 5.87995 146.401 7.61529 146.401 9.90204C146.401 12.2051 145.722 13.9486 144.363 15.1325C143.005 16.3165 141.139 16.9085 138.765 16.9085H138.485V19.1466H136.424V16.9085H136.142C133.768 16.9085 131.903 16.3165 130.544 15.1325C129.185 13.9486 128.506 12.2051 128.506 9.90204C128.506 7.61529 129.185 5.87995 130.544 4.69595C131.919 3.49579 133.784 2.89572 136.142 2.89572H136.424V0.900879H138.485V2.89572ZM136.142 14.9623H136.424V4.84195H136.142C134.393 4.84195 133.027 5.27173 132.043 6.13128C131.074 6.97462 130.591 8.23159 130.591 9.90204C130.591 11.5888 131.074 12.8538 132.043 13.6972C133.027 14.5405 134.393 14.9623 136.142 14.9623ZM138.485 14.9623H138.765C140.499 14.9623 141.858 14.5405 142.841 13.6972C143.824 12.8538 144.317 11.5888 144.317 9.90204C144.317 8.23159 143.824 6.97462 142.841 6.13128C141.873 5.27173 140.514 4.84195 138.765 4.84195H138.485V14.9623Z" fill="black"/>
<path d="M4.05497 34.5101C3.03663 34.5101 2.18118 34.1575 1.4889 33.4523C0.809912 32.7472 0.470562 31.8483 0.470562 30.756C0.470562 29.6706 0.809912 28.7753 1.4889 28.0701C2.17446 27.358 3.02991 27.002 4.05497 27.002C4.81386 27.002 5.46626 27.1817 6.01202 27.5412V28.3294C5.39965 27.9214 4.75061 27.7175 4.06505 27.7175C3.26627 27.7175 2.59065 28.0079 2.03816 28.5886C1.49226 29.1554 1.21938 29.878 1.21938 30.756C1.21938 31.6409 1.49226 32.3669 2.03816 32.9338C2.59065 33.5076 3.27285 33.7946 4.08491 33.7946C4.89713 33.7946 5.58926 33.5525 6.16175 33.0686V33.8672C5.58926 34.2958 4.88705 34.5101 4.05497 34.5101ZM10.1702 34.3857H9.43135V27.8212H7.02481V27.1264H12.6066V27.8212H10.1702V34.3857ZM14.682 34.3857H13.9431V27.1264H16.8786C17.571 27.1264 18.1166 27.3095 18.516 27.676C18.9154 28.0424 19.1151 28.5298 19.1151 29.1383C19.1151 29.7605 18.9154 30.2583 18.516 30.6316C18.1166 30.998 17.571 31.1812 16.8786 31.1812H14.682V34.3857ZM14.682 27.8212V30.4864H16.8286C17.3215 30.4864 17.7037 30.3723 17.9768 30.1442C18.25 29.9091 18.3863 29.5806 18.3863 29.159C18.3863 28.7303 18.25 28.402 17.9768 28.1738C17.7108 27.9387 17.3279 27.8212 16.8286 27.8212H14.682ZM21.2919 28.0805C21.9643 27.3614 22.8031 27.002 23.808 27.002C24.8064 27.002 25.6423 27.3614 26.3141 28.0805C26.9867 28.7994 27.3225 29.6913 27.3225 30.756C27.3225 31.8276 26.9867 32.7229 26.3141 33.442C25.6487 34.154 24.8136 34.5101 23.808 34.5101C22.7966 34.5101 21.958 34.154 21.2919 33.442C20.6265 32.7298 20.2934 31.8346 20.2934 30.756C20.2934 29.6843 20.6265 28.7925 21.2919 28.0805ZM21.841 32.9235C22.3673 33.5042 23.0228 33.7946 23.808 33.7946C24.5939 33.7946 25.2494 33.5042 25.775 32.9235C26.3077 32.3358 26.5737 31.6132 26.5737 30.756C26.5737 29.8987 26.3077 29.1762 25.775 28.5886C25.2494 28.0079 24.5939 27.7175 23.808 27.7175C23.0228 27.7175 22.3673 28.0079 21.841 28.5886C21.309 29.1762 21.0422 29.8987 21.0422 30.756C21.0422 31.6132 21.309 32.3358 21.841 32.9235ZM29.6369 34.3857H29.0178V27.1264H29.7468V33.0998L34.0901 27.1264H34.7391V34.3857H34.0102V28.3916L29.6369 34.3857ZM39.2172 34.3857H38.4784V27.8212H36.072V27.1264H41.6534V27.8212H39.2172V34.3857ZM47.9325 34.3857H42.9899V27.1264H47.7826V27.8212H43.7288V30.1442H47.0538V30.839H43.7288V33.6909H47.9325V34.3857ZM48.518 34.3857V33.6805C48.585 33.6943 48.6776 33.7012 48.7976 33.7012C49.1042 33.7012 49.3467 33.5906 49.5264 33.3694C49.7132 33.148 49.8631 32.8266 49.9757 32.4049C50.0556 32.1214 50.1091 31.8103 50.1355 31.4716C50.1754 31.0843 50.2053 30.718 50.2254 30.3723C50.2388 30.1165 50.2524 29.6947 50.2652 29.1071L50.3053 27.1264H54.6785V34.3857H53.9396V27.8212H51.0241L50.9742 29.4805C50.9343 30.8424 50.8344 31.8657 50.6746 32.5501C50.5349 33.1723 50.3152 33.6321 50.0156 33.9294C49.7233 34.2198 49.3167 34.3753 48.7976 34.3961C48.6449 34.3961 48.5514 34.3925 48.518 34.3857ZM59.4669 34.3857H56.6413V27.1264H57.38V29.8331H59.4669C60.2593 29.8331 60.8712 30.0439 61.304 30.4657C61.7497 30.8873 61.9731 31.4369 61.9731 32.1146C61.9731 32.8058 61.7497 33.359 61.304 33.7738C60.8583 34.1817 60.2457 34.3857 59.4669 34.3857ZM57.38 30.5279V33.6909H59.417C59.9896 33.6909 60.4354 33.5561 60.7549 33.2864C61.0744 33.0098 61.2342 32.6192 61.2342 32.1146C61.2342 31.6098 61.0744 31.2192 60.7549 30.9427C60.4419 30.6661 59.996 30.5279 59.417 30.5279H57.38ZM64.1761 34.3857H63.4373V27.1264H64.1761V30.1442H68.3297V27.1264H69.0686V34.3857H68.3297V30.839H64.1761V34.3857ZM71.1133 34.3857H70.3444L73.4598 27.0849H74.1487L77.2738 34.3857H76.4951L75.6265 32.3842H71.962L71.1133 34.3857ZM73.7991 28.0494L72.2116 31.7101H75.3867L73.7991 28.0494ZM78.7238 34.3857H77.8652L80.1217 31.0464C79.6025 30.9565 79.1967 30.7387 78.9035 30.3931C78.6175 30.0473 78.4742 29.6153 78.4742 29.0968C78.4742 28.4953 78.6704 28.0183 79.0633 27.6657C79.4563 27.3061 79.9918 27.1264 80.6708 27.1264H83.8066V34.3857H83.0674V31.119H80.9304L78.7238 34.3857ZM80.7208 30.4242H83.0674V27.8212H80.7208C80.2415 27.8212 79.8685 27.9353 79.6025 28.1634C79.3365 28.3916 79.2031 28.7131 79.2031 29.1279C79.2031 29.5427 79.3365 29.8642 79.6025 30.0923C79.8685 30.3135 80.2415 30.4242 80.7208 30.4242ZM88.4096 27.1264H89.1473V30.279L92.383 27.1264H93.3618L89.9259 30.4449L93.8906 34.3857H92.852L89.1473 30.6938V34.3857H88.4096V27.1264ZM95.1834 28.0805C95.8554 27.3614 96.6939 27.002 97.6989 27.002C98.6981 27.002 99.5323 27.3614 100.206 28.0805C100.878 28.7994 101.214 29.6913 101.214 30.756C101.214 31.8276 100.878 32.7229 100.206 33.442C99.5396 34.154 98.704 34.5101 97.6989 34.5101C96.6866 34.5101 95.8481 34.154 95.1834 33.442C94.5173 32.7298 94.1842 31.8346 94.1842 30.756C94.1842 29.6843 94.5173 28.7925 95.1834 28.0805ZM95.7327 32.9235C96.2571 33.5042 96.9145 33.7946 97.6989 33.7946C98.4849 33.7946 99.1408 33.5042 99.6667 32.9235C100.198 32.3358 100.464 31.6132 100.464 30.756C100.464 29.8987 100.198 29.1762 99.6667 28.5886C99.1408 28.0079 98.4849 27.7175 97.6989 27.7175C96.9145 27.7175 96.2571 28.0079 95.7327 28.5886C95.1995 29.1762 94.9336 29.8987 94.9336 30.756C94.9336 31.6132 95.1995 32.3358 95.7327 32.9235ZM103.637 34.3857H102.908V27.1264H103.637L106.163 30.642L108.689 27.1264H109.409V34.3857H108.68V28.2879L106.392 31.4612H105.944L103.637 28.2879V34.3857ZM112.11 34.3857H111.372V27.1264H116.853V34.3857H116.114V27.8212H112.11V34.3857ZM118.901 34.3857H118.133L121.247 27.0849H121.937L125.061 34.3857H124.283L123.415 32.3842H119.75L118.901 34.3857ZM121.588 28.0494L120 31.7101H123.176L121.588 28.0494ZM127.079 34.3857H126.34V27.1264H127.079V30.1442H131.232V27.1264H131.971V34.3857H131.232V30.839H127.079V34.3857ZM134.554 34.3857H133.934V27.1264H134.663V33.0998L139.006 27.1264H139.656V34.3857H138.928V28.3916L134.554 34.3857ZM141.918 34.3857H141.059L143.316 31.0464C142.796 30.9565 142.391 30.7387 142.098 30.3931C141.811 30.0473 141.668 29.6153 141.668 29.0968C141.668 28.4953 141.865 28.0183 142.257 27.6657C142.65 27.3061 143.186 27.1264 143.865 27.1264H147V34.3857H146.261V31.119H144.124L141.918 34.3857ZM143.915 30.4242H146.261V27.8212H143.915C143.436 27.8212 143.063 27.9353 142.796 28.1634C142.53 28.3916 142.397 28.7131 142.397 29.1279C142.397 29.5427 142.53 29.8642 142.796 30.0923C143.063 30.3135 143.436 30.4242 143.915 30.4242Z" fill="black"/>
</svg>
