<svg width="1128" height="259" viewBox="0 0 1128 259" fill="none" xmlns="http://www.w3.org/2000/svg">
<path d="M100.943 4.6512V19.6003H58.8436V138.071H42.6522V19.6003H0.193085V4.6512H100.943ZM171.299 2.22203C190.132 2.22203 204.825 8.76226 215.381 21.8426C225.932 34.9233 231.212 51.4293 231.212 71.3613C231.212 91.2936 225.932 107.8 215.381 120.88C204.825 133.961 190.132 140.501 171.299 140.501C152.349 140.501 137.597 134.022 127.041 121.067C116.604 107.986 111.39 91.4176 111.39 71.3613C111.39 51.3047 116.604 34.7987 127.041 21.8426C137.597 8.76226 152.349 2.22203 171.299 2.22203ZM138.736 109.668C146.05 120.009 156.907 125.178 171.299 125.178C185.695 125.178 196.547 120.009 203.865 109.668C211.179 99.3286 214.838 86.5597 214.838 71.3613C214.838 56.1631 211.179 43.3942 203.865 33.0542C196.547 22.7149 185.695 17.5446 171.299 17.5446C156.907 17.5446 146.05 22.7149 138.736 33.0542C131.418 43.3942 127.763 56.1631 127.763 71.3613C127.763 86.5597 131.418 99.3286 138.736 109.668ZM257.545 4.6512H360.452V138.071H344.264V19.9741H273.739V138.071H257.545V4.6512ZM489.796 122.749H508.329V170.772H492.316V138.071H394.981V170.772H378.968V122.749H392.28C403.078 99.0794 408.474 68.6828 408.474 31.5596V4.6512H489.796V122.749ZM473.784 122.749V19.9741H423.949V34.3623C423.949 70.7389 419.15 100.2 409.553 122.749H473.784ZM582.956 2.22203C601.785 2.22203 616.477 8.76226 627.034 21.8426C637.591 34.9233 642.865 51.4293 642.865 71.3613C642.865 91.2936 637.591 107.8 627.034 120.88C616.477 133.961 601.785 140.501 582.956 140.501C564.002 140.501 549.249 134.022 538.699 121.067C528.263 107.986 523.042 91.4176 523.042 71.3613C523.042 51.3047 528.263 34.7987 538.699 21.8426C549.249 8.76226 564.002 2.22203 582.956 2.22203ZM550.389 109.668C557.708 120.009 568.56 125.178 582.956 125.178C597.348 125.178 608.205 120.009 615.519 109.668C622.837 99.3286 626.497 86.5597 626.497 71.3613C626.497 56.1631 622.837 43.3942 615.519 33.0542C608.205 22.7149 597.348 17.5446 582.956 17.5446C568.56 17.5446 557.708 22.7149 550.389 33.0542C543.076 43.3942 539.417 56.1631 539.417 71.3613C539.417 86.5597 543.076 99.3286 550.389 109.668ZM669.2 138.071V4.6512H696.186L728.569 67.2501H732.529L764.374 4.6512H791.539V138.071H775.707V23.7111H771.746L738.824 87.0582H721.915L688.993 23.7111H685.032V138.071H669.2ZM840.529 138.071H821.824V116.396H840.529V138.071ZM870.723 4.6512H925.054C938.968 4.6512 949.706 8.13947 957.257 15.1157C964.82 22.0918 968.59 31.8708 968.59 44.4531C968.59 57.16 964.82 67.0635 957.257 74.1641C949.706 81.1408 938.968 84.6286 925.054 84.6286H886.915V138.071H870.723V4.6512ZM886.915 69.6796H922.361C942.267 69.6796 952.23 61.3328 952.23 44.6397C952.23 27.9471 942.267 19.6003 922.361 19.6003H886.915V69.6796ZM1062.43 15.6761H1064.58C1082.69 15.6761 1096.97 20.2853 1107.4 29.5039C1117.96 38.5983 1123.23 51.9277 1123.23 69.4925C1123.23 87.1822 1118.02 100.575 1107.58 109.668C1097.15 118.763 1082.82 123.31 1064.58 123.31H1062.43V140.501H1046.6V123.31H1044.43C1026.2 123.31 1011.87 118.763 1001.43 109.668C990.998 100.575 985.78 87.1822 985.78 69.4925C985.78 51.9277 990.998 38.5983 1001.43 29.5039C1011.99 20.2853 1026.32 15.6761 1044.43 15.6761H1046.6V0.353516H1062.43V15.6761ZM1044.43 108.361H1046.6V30.6253H1044.43C1031 30.6253 1020.51 33.9265 1012.95 40.5289C1005.51 47.0066 1001.79 56.6615 1001.79 69.4925C1001.79 82.4483 1005.51 92.1653 1012.95 98.6436C1020.51 105.121 1031 108.361 1044.43 108.361ZM1062.43 108.361H1064.58C1077.9 108.361 1088.34 105.121 1095.89 98.6436C1103.44 92.1653 1107.22 82.4483 1107.22 69.4925C1107.22 56.6615 1103.44 47.0066 1095.89 40.5289C1088.45 33.9265 1078.01 30.6253 1064.58 30.6253H1062.43V108.361Z" fill="black"/>
<path d="M29.8566 258.511C22.0347 258.511 15.4638 255.802 10.1464 250.386C4.93099 244.969 2.3244 238.065 2.3244 229.675C2.3244 221.337 4.93099 214.461 10.1464 209.044C15.4122 203.574 21.9831 200.839 29.8566 200.839C35.6858 200.839 40.6969 202.22 44.889 204.981V211.035C40.1853 207.901 35.1999 206.336 29.9341 206.336C23.7986 206.336 18.609 208.566 14.3653 213.027C10.1722 217.381 8.07613 222.93 8.07613 229.675C8.07613 236.472 10.1722 242.048 14.3653 246.403C18.609 250.81 23.8491 253.014 30.0866 253.014C36.3254 253.014 41.6417 251.155 46.0391 247.438V253.572C41.6417 256.864 36.2479 258.511 29.8566 258.511ZM76.8287 257.555H71.1533V207.132H52.6683V201.795H95.5425V207.132H76.8287V257.555ZM111.484 257.555H105.808V201.795H128.356C133.675 201.795 137.866 203.202 140.934 206.017C144.001 208.831 145.535 212.575 145.535 217.249C145.535 222.028 144.001 225.851 140.934 228.719C137.866 231.533 133.675 232.941 128.356 232.941H111.484V257.555ZM111.484 207.132V227.604H127.973C131.758 227.604 134.694 226.728 136.792 224.975C138.89 223.169 139.937 220.646 139.937 217.408C139.937 214.115 138.89 211.593 136.792 209.841C134.749 208.035 131.808 207.132 127.973 207.132H111.484ZM162.255 209.124C167.42 203.6 173.863 200.839 181.582 200.839C189.251 200.839 195.671 203.6 200.832 209.124C205.998 214.646 208.578 221.496 208.578 229.675C208.578 237.906 205.998 244.782 200.832 250.306C195.721 255.775 189.306 258.511 181.582 258.511C173.814 258.511 167.372 255.775 162.255 250.306C157.144 244.836 154.586 237.959 154.586 229.675C154.586 221.443 157.144 214.593 162.255 209.124ZM166.473 246.323C170.516 250.784 175.551 253.014 181.582 253.014C187.618 253.014 192.653 250.784 196.69 246.323C200.783 241.809 202.826 236.259 202.826 229.675C202.826 223.09 200.783 217.54 196.69 213.027C192.653 208.566 187.618 206.336 181.582 206.336C175.551 206.336 170.516 208.566 166.473 213.027C162.386 217.54 160.338 223.09 160.338 229.675C160.338 236.259 162.386 241.809 166.473 246.323ZM226.354 257.555H221.599V201.795H227.198V247.677L260.56 201.795H265.545V257.555H259.946V211.513L226.354 257.555ZM299.942 257.555H294.267V207.132H275.783V201.795H318.655V207.132H299.942V257.555ZM366.885 257.555H328.921V201.795H365.733V207.132H334.596V224.975H360.135V230.312H334.596V252.218H366.885V257.555ZM371.382 257.555V252.138C371.897 252.244 372.608 252.297 373.53 252.297C375.885 252.297 377.747 251.447 379.128 249.748C380.563 248.048 381.714 245.579 382.579 242.34C383.193 240.162 383.603 237.773 383.807 235.171C384.113 232.197 384.343 229.382 384.497 226.728C384.6 224.762 384.704 221.523 384.803 217.01L385.11 201.795H418.702V257.555H413.026V207.132H390.632L390.248 219.877C389.942 230.338 389.175 238.198 387.947 243.455C386.874 248.235 385.187 251.766 382.885 254.05C380.64 256.28 377.517 257.475 373.53 257.634C372.357 257.634 371.639 257.607 371.382 257.555ZM455.482 257.555H433.778V201.795H439.452V222.586H455.482C461.568 222.586 466.269 224.205 469.593 227.445C473.017 230.683 474.732 234.905 474.732 240.11C474.732 245.42 473.017 249.669 469.593 252.855C466.17 255.988 461.464 257.555 455.482 257.555ZM439.452 227.922V252.218H455.098C459.497 252.218 462.921 251.182 465.375 249.111C467.829 246.987 469.057 243.986 469.057 240.11C469.057 236.233 467.829 233.232 465.375 231.109C462.971 228.984 459.546 227.922 455.098 227.922H439.452ZM491.654 257.555H485.979V201.795H491.654V224.975H523.558V201.795H529.233V257.555H523.558V230.312H491.654V257.555ZM544.939 257.555H539.034L562.963 201.477H568.255L592.259 257.555H586.277L579.605 242.181H551.458L544.939 257.555ZM565.569 208.885L553.376 237.003H577.764L565.569 208.885ZM603.397 257.555H596.801L614.134 231.905C610.146 231.215 607.029 229.542 604.777 226.887C602.58 224.231 601.479 220.913 601.479 216.93C601.479 212.31 602.986 208.646 606.004 205.937C609.023 203.176 613.136 201.795 618.352 201.795H642.438V257.555H636.76V232.463H620.345L603.397 257.555ZM618.735 227.126H636.76V207.132H618.735C615.054 207.132 612.189 208.008 610.146 209.761C608.103 211.513 607.078 213.983 607.078 217.169C607.078 220.355 608.103 222.824 610.146 224.577C612.189 226.276 615.054 227.126 618.735 227.126ZM677.794 201.795H683.461V226.011L708.315 201.795H715.832L689.441 227.285L719.894 257.555H711.916L683.461 229.197V257.555H677.794V201.795ZM729.825 209.124C734.986 203.6 741.427 200.839 749.147 200.839C756.822 200.839 763.229 203.6 768.401 209.124C773.563 214.646 776.144 221.496 776.144 229.675C776.144 237.906 773.563 244.782 768.401 250.306C763.285 255.775 756.867 258.511 749.147 258.511C741.371 258.511 734.93 255.775 729.825 250.306C724.708 244.836 722.15 237.959 722.15 229.675C722.15 221.443 724.708 214.593 729.825 209.124ZM734.044 246.323C738.072 250.784 743.121 253.014 749.147 253.014C755.183 253.014 760.221 250.784 764.261 246.323C768.345 241.809 770.387 236.259 770.387 229.675C770.387 223.09 768.345 217.54 764.261 213.027C760.221 208.566 755.183 206.336 749.147 206.336C743.121 206.336 738.072 208.566 734.044 213.027C729.948 217.54 727.906 223.09 727.906 229.675C727.906 236.259 729.948 241.809 734.044 246.323ZM794.759 257.555H789.16V201.795H794.759L814.159 228.799L833.56 201.795H839.092V257.555H833.493V210.717L815.921 235.092H812.476L794.759 210.717V257.555ZM859.839 257.555H854.172V201.795H896.272V257.555H890.595V207.132H859.839V257.555ZM912.004 257.555H906.102L930.024 201.477H935.32L959.321 257.555H953.341L946.676 242.181H918.523L912.004 257.555ZM932.639 208.885L920.442 237.003H944.836L932.639 208.885ZM974.817 257.555H969.14V201.795H974.817V224.975H1006.72V201.795H1012.4V257.555H1006.72V230.312H974.817V257.555ZM1032.23 257.555H1027.48V201.795H1033.08V247.677L1066.43 201.795H1071.43V257.555H1065.83V211.513L1032.23 257.555ZM1088.8 257.555H1082.2L1099.54 231.905C1095.54 231.215 1092.43 229.542 1090.18 226.887C1087.98 224.231 1086.88 220.913 1086.88 216.93C1086.88 212.31 1088.39 208.646 1091.4 205.937C1094.42 203.176 1098.54 201.795 1103.75 201.795H1127.83V257.555H1122.16V232.463H1105.74L1088.8 257.555ZM1104.14 227.126H1122.16V207.132H1104.14C1100.46 207.132 1097.59 208.008 1095.54 209.761C1093.5 211.513 1092.48 213.983 1092.48 217.169C1092.48 220.355 1093.5 222.824 1095.54 224.577C1097.59 226.276 1100.46 227.126 1104.14 227.126Z" fill="black"/>
</svg>
