<svg width="100" height="24" viewBox="0 0 100 24" fill="none" xmlns="http://www.w3.org/2000/svg">
<path d="M8.87589 0.922834V2.23737H5.17397V12.655H3.75019V2.23737H0.0166016V0.922834H8.87589ZM15.0626 0.709227C16.7187 0.709227 18.0107 1.28434 18.9389 2.43454C19.8667 3.58478 20.331 5.03621 20.331 6.78891C20.331 8.54163 19.8667 9.99306 18.9389 11.1433C18.0107 12.2935 16.7187 12.8686 15.0626 12.8686C13.3963 12.8686 12.0991 12.2989 11.1708 11.1597C10.2531 10.0095 9.79458 8.55254 9.79458 6.78891C9.79458 5.02525 10.2531 3.57382 11.1708 2.43454C12.0991 1.28434 13.3963 0.709227 15.0626 0.709227ZM12.1992 10.1574C12.8423 11.0666 13.797 11.5212 15.0626 11.5212C16.3285 11.5212 17.2828 11.0666 17.9263 10.1574C18.5694 9.24818 18.8912 8.12536 18.8912 6.78891C18.8912 5.45247 18.5694 4.32965 17.9263 3.42042C17.2828 2.51124 16.3285 2.0566 15.0626 2.0566C13.797 2.0566 12.8423 2.51124 12.1992 3.42042C11.5557 4.32965 11.2343 5.45247 11.2343 6.78891C11.2343 8.12536 11.5557 9.24818 12.1992 10.1574ZM22.6466 0.922834H31.6956V12.655H30.2721V2.27024H24.0705V12.655H22.6466V0.922834ZM43.0692 11.3076H44.6989V15.5305H43.2908V12.655H34.7318V15.5305H33.3237V11.3076H34.4943C35.4438 9.22627 35.9183 6.55338 35.9183 3.28899V0.922834H43.0692V11.3076ZM41.6612 11.3076V2.27024H37.2791V3.53545C37.2791 6.73417 36.8571 9.32483 36.0132 11.3076H41.6612ZM51.2612 0.709227C52.9169 0.709227 54.2088 1.28434 55.1371 2.43454C56.0654 3.58478 56.5292 5.03621 56.5292 6.78891C56.5292 8.54163 56.0654 9.99306 55.1371 11.1433C54.2088 12.2935 52.9169 12.8686 51.2612 12.8686C49.5945 12.8686 48.2972 12.2989 47.3695 11.1597C46.4518 10.0095 45.9927 8.55254 45.9927 6.78891C45.9927 5.02525 46.4518 3.57382 47.3695 2.43454C48.2972 1.28434 49.5945 0.709227 51.2612 0.709227ZM48.3975 10.1574C49.041 11.0666 49.9953 11.5212 51.2612 11.5212C52.5267 11.5212 53.4814 11.0666 54.1245 10.1574C54.7681 9.24818 55.0899 8.12536 55.0899 6.78891C55.0899 5.45247 54.7681 4.32965 54.1245 3.42042C53.4814 2.51124 52.5267 2.0566 51.2612 2.0566C49.9953 2.0566 49.041 2.51124 48.3975 3.42042C47.7544 4.32965 47.4326 5.45247 47.4326 6.78891C47.4326 8.12536 47.7544 9.24818 48.3975 10.1574ZM58.8449 12.655V0.922834H61.2179L64.0654 6.4274H64.4137L67.2139 0.922834H69.6027V12.655H68.2105V2.59885H67.8622L64.9673 8.16919H63.4803L60.5854 2.59885H60.2371V12.655H58.8449ZM73.9105 12.655H72.2657V10.7489H73.9105V12.655ZM76.5657 0.922834H81.3432C82.5666 0.922834 83.5109 1.22957 84.1749 1.84301C84.8399 2.45646 85.1715 3.31636 85.1715 4.42276C85.1715 5.54013 84.8399 6.41099 84.1749 7.03537C83.5109 7.64886 82.5666 7.95556 81.3432 7.95556H77.9894V12.655H76.5657V0.922834ZM77.9894 6.64103H81.1063C82.8567 6.64103 83.7329 5.90706 83.7329 4.43917C83.7329 2.97134 82.8567 2.23737 81.1063 2.23737H77.9894V6.64103ZM93.4231 1.89229H93.6125C95.205 1.89229 96.46 2.2976 97.3777 3.10822C98.3061 3.90793 98.7699 5.08003 98.7699 6.62457C98.7699 8.1801 98.3111 9.35775 97.3934 10.1574C96.4758 10.9571 95.2159 11.3569 93.6125 11.3569H93.4231V12.8686H92.0309V11.3569H91.8404C90.2371 11.3569 88.9771 10.9571 88.0595 10.1574C87.1419 9.35775 86.6831 8.1801 86.6831 6.62457C86.6831 5.08003 87.1419 3.90793 88.0595 3.10822C88.9879 2.2976 90.2479 1.89229 91.8404 1.89229H92.0309V0.544922H93.4231V1.89229ZM91.8404 10.0424H92.0309V3.20684H91.8404C90.6594 3.20684 89.7368 3.49712 89.0718 4.07769C88.4176 4.64731 88.091 5.4963 88.091 6.62457C88.091 7.76383 88.4176 8.61828 89.0718 9.18794C89.7368 9.75751 90.6594 10.0424 91.8404 10.0424ZM93.4231 10.0424H93.6125C94.7837 10.0424 95.7013 9.75751 96.3653 9.18794C97.0294 8.61828 97.3619 7.76383 97.3619 6.62457C97.3619 5.4963 97.0294 4.64731 96.3653 4.07769C95.7112 3.49712 94.7935 3.20684 93.6125 3.20684H93.4231V10.0424Z" fill="white"/>
<path d="M2.62511 23.246C1.9373 23.246 1.3595 23.0079 0.891916 22.5316C0.433308 22.0553 0.204102 21.4482 0.204102 20.7104C0.204102 19.9773 0.433308 19.3726 0.891916 18.8963C1.35496 18.4153 1.93276 18.1748 2.62511 18.1748C3.13769 18.1748 3.57834 18.2962 3.94697 18.539V19.0714C3.53335 18.7958 3.09497 18.6581 2.63192 18.6581C2.09241 18.6581 1.63607 18.8542 1.26291 19.2465C0.894185 19.6293 0.709873 20.1173 0.709873 20.7104C0.709873 21.3081 0.894185 21.7984 1.26291 22.1814C1.63607 22.5689 2.09685 22.7627 2.64534 22.7627C3.19393 22.7627 3.66142 22.5992 4.0481 22.2724V22.8118C3.66142 23.1013 3.18713 23.246 2.62511 23.246ZM6.75555 23.162H6.25649V18.7282H4.63103V18.2589H8.40113V18.7282H6.75555V23.162ZM9.8029 23.162H9.30384V18.2589H11.2866C11.7543 18.2589 12.1228 18.3825 12.3925 18.6301C12.6623 18.8776 12.7972 19.2068 12.7972 19.6177C12.7972 20.038 12.6623 20.3742 12.3925 20.6264C12.1228 20.8738 11.7543 20.9976 11.2866 20.9976H9.8029V23.162ZM9.8029 18.7282V20.5283H11.2528C11.5857 20.5283 11.8438 20.4513 12.0284 20.2972C12.2129 20.1384 12.3049 19.9165 12.3049 19.6317C12.3049 19.3422 12.2129 19.1204 12.0284 18.9663C11.8487 18.8075 11.5901 18.7282 11.2528 18.7282H9.8029ZM14.2674 18.9033C14.7216 18.4176 15.2881 18.1748 15.9669 18.1748C16.6413 18.1748 17.2058 18.4176 17.6596 18.9033C18.1139 19.3889 18.3407 19.9913 18.3407 20.7104C18.3407 21.4342 18.1139 22.0389 17.6596 22.5246C17.2102 23.0055 16.6461 23.246 15.9669 23.246C15.2838 23.246 14.7173 23.0055 14.2674 22.5246C13.818 22.0436 13.593 21.4389 13.593 20.7104C13.593 19.9866 13.818 19.3842 14.2674 18.9033ZM14.6383 22.1744C14.9938 22.5666 15.4365 22.7627 15.9669 22.7627C16.4977 22.7627 16.9404 22.5666 17.2954 22.1744C17.6553 21.7774 17.835 21.2894 17.835 20.7104C17.835 20.1314 17.6553 19.6433 17.2954 19.2465C16.9404 18.8542 16.4977 18.6581 15.9669 18.6581C15.4365 18.6581 14.9938 18.8542 14.6383 19.2465C14.279 19.6433 14.0988 20.1314 14.0988 20.7104C14.0988 21.2894 14.279 21.7774 14.6383 22.1744ZM19.9039 23.162H19.4858V18.2589H19.9781V22.2934L22.9117 18.2589H23.3501V23.162H22.8577V19.1134L19.9039 23.162ZM26.3748 23.162H25.8757V18.7282H24.2503V18.2589H28.0202V18.7282H26.3748V23.162ZM32.2613 23.162H28.9229V18.2589H32.16V18.7282H29.422V20.2972H31.6678V20.7665H29.422V22.6927H32.2613V23.162ZM32.6567 23.162V22.6857C32.702 22.695 32.7646 22.6997 32.8456 22.6997C33.0527 22.6997 33.2165 22.625 33.3378 22.4756C33.464 22.3261 33.5653 22.1089 33.6413 21.8241C33.6953 21.6326 33.7314 21.4225 33.7493 21.1937C33.7762 20.9322 33.7964 20.6847 33.81 20.4513C33.819 20.2785 33.8282 19.9936 33.8369 19.5967L33.8639 18.2589H36.8178V23.162H36.3187V18.7282H34.3495L34.3157 19.8489C34.2888 20.7688 34.2213 21.4599 34.1134 21.9222C34.019 22.3425 33.8706 22.653 33.6683 22.8538C33.4708 23.0499 33.1962 23.155 32.8456 23.169C32.7425 23.169 32.6793 23.1666 32.6567 23.162ZM40.052 23.162H38.1435V18.2589H38.6424V20.087H40.052C40.5872 20.087 41.0005 20.2294 41.2928 20.5143C41.5939 20.7991 41.7447 21.1703 41.7447 21.628C41.7447 22.0949 41.5939 22.4686 41.2928 22.7487C40.9918 23.0242 40.578 23.162 40.052 23.162ZM38.6424 20.5563V22.6927H40.0182C40.405 22.6927 40.7062 22.6016 40.9219 22.4195C41.1377 22.2327 41.2457 21.9688 41.2457 21.628C41.2457 21.2871 41.1377 21.0232 40.9219 20.8365C40.7105 20.6497 40.4094 20.5563 40.0182 20.5563H38.6424ZM43.2327 23.162H42.7337V18.2589H43.2327V20.2972H46.0382V18.2589H46.5372V23.162H46.0382V20.7665H43.2327V23.162ZM47.9183 23.162H47.399L49.5032 18.2308H49.9685L52.0793 23.162H51.5533L50.9666 21.8101H48.4915L47.9183 23.162ZM49.7324 18.8823L48.6602 21.3548H50.8047L49.7324 18.8823ZM53.0587 23.162H52.4787L54.0028 20.9066C53.6522 20.8458 53.3781 20.6987 53.18 20.4653C52.9868 20.2317 52.89 19.9399 52.89 19.5897C52.89 19.1834 53.0226 18.8612 53.288 18.6231C53.5534 18.3802 53.9151 18.2589 54.3737 18.2589H56.4917V23.162H55.9925V20.9556H54.549L53.0587 23.162ZM54.4075 20.4863H55.9925V18.7282H54.4075C54.0837 18.7282 53.8318 18.8052 53.6522 18.9593C53.4725 19.1134 53.3824 19.3305 53.3824 19.6107C53.3824 19.8909 53.4725 20.108 53.6522 20.2621C53.8318 20.4115 54.0837 20.4863 54.4075 20.4863ZM59.6007 18.2589H60.099V20.3882L62.2845 18.2589H62.9456L60.6249 20.5003L63.3028 23.162H62.6012L60.099 20.6684V23.162H59.6007V18.2589ZM64.176 18.9033C64.6298 18.4176 65.1962 18.1748 65.875 18.1748C66.5499 18.1748 67.1133 18.4176 67.5682 18.9033C68.022 19.3889 68.249 19.9913 68.249 20.7104C68.249 21.4342 68.022 22.0389 67.5682 22.5246C67.1182 23.0055 66.5539 23.246 65.875 23.246C65.1913 23.246 64.6249 23.0055 64.176 22.5246C63.726 22.0436 63.5011 21.4389 63.5011 20.7104C63.5011 19.9866 63.726 19.3842 64.176 18.9033ZM64.547 22.1744C64.9012 22.5666 65.3452 22.7627 65.875 22.7627C66.4059 22.7627 66.8489 22.5666 67.2041 22.1744C67.5632 21.7774 67.7428 21.2894 67.7428 20.7104C67.7428 20.1314 67.5632 19.6433 67.2041 19.2465C66.8489 18.8542 66.4059 18.6581 65.875 18.6581C65.3452 18.6581 64.9012 18.8542 64.547 19.2465C64.1868 19.6433 64.0072 20.1314 64.0072 20.7104C64.0072 21.2894 64.1868 21.7774 64.547 22.1744ZM69.8859 23.162H69.3935V18.2589H69.8859L71.5918 20.6334L73.2978 18.2589H73.7842V23.162H73.2919V19.0434L71.7467 21.1867H71.4438L69.8859 19.0434V23.162ZM75.6086 23.162H75.1103V18.2589H78.8123V23.162H78.3131V18.7282H75.6086V23.162ZM80.1957 23.162H79.6767L81.7803 18.2308H82.246L84.3565 23.162H83.8306L83.2445 21.8101H80.7689L80.1957 23.162ZM82.0102 18.8823L80.9377 21.3548H83.0827L82.0102 18.8823ZM85.7191 23.162H85.2198V18.2589H85.7191V20.2972H88.5242V18.2589H89.0235V23.162H88.5242V20.7665H85.7191V23.162ZM90.7679 23.162H90.3496V18.2589H90.8419V22.2934L93.7753 18.2589H94.2144V23.162H93.722V19.1134L90.7679 23.162ZM95.7418 23.162H95.1616L96.686 20.9066C96.3348 20.8458 96.0615 20.6987 95.8631 20.4653C95.6697 20.2317 95.5731 19.9399 95.5731 19.5897C95.5731 19.1834 95.7063 18.8612 95.9707 18.6231C96.2361 18.3802 96.5982 18.2589 97.057 18.2589H99.1744V23.162H98.6752V20.9556H97.2317L95.7418 23.162ZM97.0906 20.4863H98.6752V18.7282H97.0906C96.7669 18.7282 96.5153 18.8052 96.3348 18.9593C96.1552 19.1134 96.0654 19.3305 96.0654 19.6107C96.0654 19.8909 96.1552 20.108 96.3348 20.2621C96.5153 20.4115 96.7669 20.4863 97.0906 20.4863Z" fill="white"/>
</svg>
