<svg width="215" height="48" viewBox="0 0 215 48" fill="none" xmlns="http://www.w3.org/2000/svg">
<mask id="mask0_97_247" style="mask-type:luminance" maskUnits="userSpaceOnUse" x="0" y="0" width="212" height="43">
<path d="M212 0H0V43H212V0Z" fill="white"/>
</mask>
<g mask="url(#mask0_97_247)">
<path fill-rule="evenodd" clip-rule="evenodd" d="M1.12889 16.1072L14.2603 0.00666679L37.9689 0L52.6133 19.1064L32.069 28.3812L14.2652 4.90612L0 19.126L14.2632 3.22754L32.2496 27.8321L52.6133 19.1064L37.8059 0.34964L14.9286 0.97498L32.1335 24.6042L14.2633 0.989578L1.12889 16.1072Z" fill="white"/>
<path fill-rule="evenodd" clip-rule="evenodd" d="M14.1998 13.4111L17.9331 14.0838L17.9385 22.2187L14.3221 21.1638L16.8701 21.7753V14.3578L14.3886 13.6751L14.221 21.1449L14.1998 13.4111Z" fill="white"/>
<path fill-rule="evenodd" clip-rule="evenodd" d="M17.9234 31.0547L17.939 22.9658L14.2049 21.8179L14.1888 29.3005L14.3585 22.0788L16.8777 23.0121L16.8846 30.4655L14.2746 29.3286L17.9234 31.0547Z" fill="white"/>
<path fill-rule="evenodd" clip-rule="evenodd" d="M10.7392 12.8203L13.5144 13.3038L13.5388 20.9513L12.5655 20.6478L12.5615 13.5142L10.8872 13.0577L10.7535 20.096L10.7392 12.8203Z" fill="white"/>
<path fill-rule="evenodd" clip-rule="evenodd" d="M13.533 28.9858L13.5389 21.6142L10.7222 20.7534L10.7135 27.6352L10.8195 20.9288L12.5818 21.5589L12.5724 28.5683L13.533 28.9858Z" fill="white"/>
<path fill-rule="evenodd" clip-rule="evenodd" d="M26.6025 37.8472L26.113 25.8862L25.6558 37.8465L2.51898 26.7719L26.103 39.6049L49.2602 26.7692L26.6025 37.8472Z" fill="white"/>
<path fill-rule="evenodd" clip-rule="evenodd" d="M26.1374 41.3547L49.1527 28.8491L26.1247 43L2.38336 28.8491L26.1374 41.3547Z" fill="white"/>
<g filter="url(#filter0_d_97_247)">
<path d="M76.8702 6.33929V8.28718H71.3847V23.7241H69.2749V8.28718H63.7424V6.33929H76.8702ZM86.0377 6.02277C88.4918 6.02277 90.4062 6.87497 91.7817 8.57935C93.1565 10.2838 93.8445 12.4345 93.8445 15.0317C93.8445 17.6289 93.1565 19.7796 91.7817 21.4841C90.4062 23.1885 88.4918 24.0406 86.0377 24.0406C83.5685 24.0406 81.6463 23.1965 80.2708 21.5084C78.911 19.804 78.2315 17.6451 78.2315 15.0317C78.2315 12.4183 78.911 10.2675 80.2708 8.57935C81.6463 6.87497 83.5685 6.02277 86.0377 6.02277ZM81.7947 20.0231C82.7477 21.3705 84.1624 22.0441 86.0377 22.0441C87.9135 22.0441 89.3276 21.3705 90.2812 20.0231C91.2342 18.6759 91.7109 17.0121 91.7109 15.0317C91.7109 13.0514 91.2342 11.3875 90.2812 10.0402C89.3276 8.69301 87.9135 8.01932 86.0377 8.01932C84.1624 8.01932 82.7477 8.69301 81.7947 10.0402C80.8412 11.3875 80.365 13.0514 80.365 15.0317C80.365 17.0121 80.8412 18.6759 81.7947 20.0231ZM97.2757 6.33929H110.685V23.7241H108.575V8.33588H99.3858V23.7241H97.2757V6.33929ZM127.538 21.7275H129.953V27.9851H127.867V23.7241H115.184V27.9851H113.097V21.7275H114.832C116.239 18.6434 116.942 14.6827 116.942 9.84548V6.33929H127.538V21.7275ZM125.452 21.7275V8.33588H118.958V10.2107C118.958 14.9506 118.333 18.7895 117.083 21.7275H125.452ZM139.677 6.02277C142.131 6.02277 144.045 6.87497 145.42 8.57935C146.796 10.2838 147.483 12.4345 147.483 15.0317C147.483 17.6289 146.796 19.7796 145.42 21.4841C144.045 23.1885 142.131 24.0406 139.677 24.0406C137.207 24.0406 135.285 23.1965 133.91 21.5084C132.551 19.804 131.87 17.6451 131.87 15.0317C131.87 12.4183 132.551 10.2675 133.91 8.57935C135.285 6.87497 137.207 6.02277 139.677 6.02277ZM135.434 20.0231C136.387 21.3705 137.801 22.0441 139.677 22.0441C141.552 22.0441 142.967 21.3705 143.92 20.0231C144.874 18.6759 145.351 17.0121 145.351 15.0317C145.351 13.0514 144.874 11.3875 143.92 10.0402C142.967 8.69301 141.552 8.01932 139.677 8.01932C137.801 8.01932 136.387 8.69301 135.434 10.0402C134.481 11.3875 134.004 13.0514 134.004 15.0317C134.004 17.0121 134.481 18.6759 135.434 20.0231ZM150.915 23.7241V6.33929H154.431L158.651 14.496H159.167L163.316 6.33929H166.856V23.7241H164.793V8.82282H164.277L159.987 17.077H157.784L153.494 8.82282H152.978V23.7241H150.915ZM173.239 23.7241H170.802V20.8997H173.239V23.7241ZM177.174 6.33929H184.253C186.066 6.33929 187.465 6.79382 188.449 7.70282C189.434 8.61183 189.926 9.88603 189.926 11.5255C189.926 13.1812 189.434 14.4717 188.449 15.3969C187.465 16.306 186.066 16.7604 184.253 16.7604H179.283V23.7241H177.174V6.33929ZM179.283 14.8126H183.902C186.496 14.8126 187.794 13.725 187.794 11.5498C187.794 9.37478 186.496 8.28718 183.902 8.28718H179.283V14.8126ZM202.153 7.77585H202.434C204.793 7.77585 206.653 8.37644 208.013 9.57762C209.389 10.7626 210.076 12.4995 210.076 14.7882C210.076 17.0932 209.396 18.8382 208.036 20.0231C206.677 21.2081 204.81 21.8006 202.434 21.8006H202.153V24.0406H200.09V21.8006H199.808C197.432 21.8006 195.565 21.2081 194.205 20.0231C192.845 18.8382 192.166 17.0932 192.166 14.7882C192.166 12.4995 192.845 10.7626 194.205 9.57762C195.581 8.37644 197.448 7.77585 199.808 7.77585H200.09V5.7793H202.153V7.77585ZM199.808 19.8527H200.09V9.72375H199.808C198.058 9.72375 196.691 10.1539 195.705 11.0142C194.736 11.8583 194.252 13.1163 194.252 14.7882C194.252 16.4763 194.736 17.7425 195.705 18.5866C196.691 19.4306 198.058 19.8527 199.808 19.8527ZM202.153 19.8527H202.434C204.169 19.8527 205.529 19.4306 206.513 18.5866C207.497 17.7425 207.99 16.4763 207.99 14.7882C207.99 13.1163 207.497 11.8583 206.513 11.0142C205.544 10.1539 204.184 9.72375 202.434 9.72375H202.153V19.8527Z" fill="white"/>
</g>
<g filter="url(#filter1_d_97_247)">
<path d="M67.6077 39.4175C66.5885 39.4175 65.7323 39.0646 65.0394 38.3588C64.3598 37.653 64.0202 36.7534 64.0202 35.6601C64.0202 34.5737 64.3598 33.6777 65.0394 32.9719C65.7256 32.2591 66.5817 31.9028 67.6077 31.9028C68.3672 31.9028 69.0202 32.0827 69.5664 32.4426V33.2314C68.9535 32.823 68.3039 32.619 67.6178 32.619C66.8183 32.619 66.1421 32.9096 65.5892 33.4909C65.0428 34.0582 64.7697 34.7813 64.7697 35.6601C64.7697 36.5458 65.0428 37.2723 65.5892 37.8398C66.1421 38.4141 66.8249 38.7013 67.6377 38.7013C68.4506 38.7013 69.1433 38.459 69.7163 37.9747V38.7739C69.1433 39.2029 68.4405 39.4175 67.6077 39.4175ZM73.7282 39.2929H72.9887V32.7228H70.5801V32.0274H76.1666V32.7228H73.7282V39.2929ZM78.2438 39.2929H77.5043V32.0274H80.4423C81.1353 32.0274 81.6814 32.2107 82.0811 32.5775C82.4809 32.9442 82.6807 33.432 82.6807 34.041C82.6807 34.6637 82.4809 35.1619 82.0811 35.5356C81.6814 35.9023 81.1353 36.0857 80.4423 36.0857H78.2438V39.2929ZM78.2438 32.7228V35.3903H80.3923C80.8856 35.3903 81.2681 35.2761 81.5415 35.0478C81.8149 34.8124 81.9513 34.4837 81.9513 34.0617C81.9513 33.6326 81.8149 33.304 81.5415 33.0757C81.2753 32.8404 80.892 32.7228 80.3923 32.7228H78.2438ZM84.8594 32.9823C85.5324 32.2625 86.3719 31.9028 87.3776 31.9028C88.377 31.9028 89.2136 32.2625 89.886 32.9823C90.5591 33.7019 90.8952 34.5945 90.8952 35.6601C90.8952 36.7326 90.5591 37.6287 89.886 38.3484C89.22 39.061 88.3841 39.4175 87.3776 39.4175C86.3654 39.4175 85.5261 39.061 84.8594 38.3484C84.1934 37.6356 83.86 36.7396 83.86 35.6601C83.86 34.5875 84.1934 33.6949 84.8594 32.9823ZM85.409 37.8294C85.9357 38.4107 86.5918 38.7013 87.3776 38.7013C88.1642 38.7013 88.8203 38.4107 89.3463 37.8294C89.8795 37.2412 90.1458 36.5181 90.1458 35.6601C90.1458 34.8021 89.8795 34.0789 89.3463 33.4909C88.8203 32.9096 88.1642 32.619 87.3776 32.619C86.5918 32.619 85.9357 32.9096 85.409 33.4909C84.8765 34.0789 84.6095 34.8021 84.6095 35.6601C84.6095 36.5181 84.8765 37.2412 85.409 37.8294ZM93.2116 39.2929H92.592V32.0274H93.3215V38.0059L97.6685 32.0274H98.3182V39.2929H97.5886V33.2937L93.2116 39.2929ZM102.8 39.2929H102.061V32.7228H99.6521V32.0274H105.238V32.7228H102.8V39.2929ZM111.523 39.2929H106.576V32.0274H111.373V32.7228H107.316V35.0478H110.643V35.7432H107.316V38.5975H111.523V39.2929ZM112.109 39.2929V38.5871C112.176 38.6009 112.269 38.6079 112.389 38.6079C112.696 38.6079 112.938 38.4971 113.118 38.2757C113.305 38.0542 113.455 37.7324 113.568 37.3105C113.648 37.0267 113.701 36.7153 113.728 36.3763C113.768 35.9887 113.798 35.622 113.818 35.2761C113.831 35.02 113.845 34.5979 113.858 34.0098L113.898 32.0274H118.275V39.2929H117.535V32.7228H114.617L114.567 34.3835C114.527 35.7466 114.427 36.7707 114.267 37.4558C114.128 38.0785 113.908 38.5386 113.608 38.8362C113.315 39.1268 112.908 39.2825 112.389 39.3033C112.236 39.3033 112.142 39.2997 112.109 39.2929ZM123.067 39.2929H120.239V32.0274H120.978V34.7364H123.067C123.86 34.7364 124.473 34.9474 124.906 35.3695C125.352 35.7915 125.576 36.3416 125.576 37.0198C125.576 37.7117 125.352 38.2653 124.906 38.6805C124.46 39.0887 123.847 39.2929 123.067 39.2929ZM120.978 35.4318V38.5975H123.017C123.59 38.5975 124.037 38.4626 124.356 38.1927C124.676 37.9159 124.836 37.5249 124.836 37.0198C124.836 36.5147 124.676 36.1237 124.356 35.847C124.043 35.5701 123.597 35.4318 123.017 35.4318H120.978ZM127.78 39.2929H127.041V32.0274H127.78V35.0478H131.938V32.0274H132.677V39.2929H131.938V35.7432H127.78V39.2929ZM134.724 39.2929H133.954L137.072 31.9859H137.762L140.889 39.2929H140.11L139.241 37.2897H135.573L134.724 39.2929ZM137.412 32.9511L135.823 36.615H139.001L137.412 32.9511ZM142.341 39.2929H141.481L143.74 35.9508C143.22 35.8608 142.814 35.6428 142.52 35.2969C142.234 34.9508 142.091 34.5184 142.091 33.9995C142.091 33.3975 142.287 32.92 142.68 32.5671C143.074 32.2072 143.61 32.0274 144.289 32.0274H147.428V39.2929H146.688V36.0234H144.549L142.341 39.2929ZM144.339 35.328H146.688V32.7228H144.339C143.86 32.7228 143.486 32.837 143.22 33.0653C142.954 33.2937 142.82 33.6154 142.82 34.0306C142.82 34.4458 142.954 34.7675 143.22 34.9959C143.486 35.2172 143.86 35.328 144.339 35.328ZM152.035 32.0274H152.773V35.1827L156.012 32.0274H156.991L153.552 35.3488L157.52 39.2929H156.481L152.773 35.5979V39.2929H152.035V32.0274ZM158.814 32.9823C159.487 32.2625 160.326 31.9028 161.332 31.9028C162.332 31.9028 163.167 32.2625 163.841 32.9823C164.513 33.7019 164.85 34.5945 164.85 35.6601C164.85 36.7326 164.513 37.6287 163.841 38.3484C163.174 39.061 162.338 39.4175 161.332 39.4175C160.319 39.4175 159.48 39.061 158.814 38.3484C158.148 37.6356 157.814 36.7396 157.814 35.6601C157.814 34.5875 158.148 33.6949 158.814 32.9823ZM159.364 37.8294C159.889 38.4107 160.547 38.7013 161.332 38.7013C162.119 38.7013 162.775 38.4107 163.301 37.8294C163.834 37.2412 164.1 36.5181 164.1 35.6601C164.1 34.8021 163.834 34.0789 163.301 33.4909C162.775 32.9096 162.119 32.619 161.332 32.619C160.547 32.619 159.889 32.9096 159.364 33.4909C158.83 34.0789 158.564 34.8021 158.564 35.6601C158.564 36.5181 158.83 37.2412 159.364 37.8294ZM167.275 39.2929H166.546V32.0274H167.275L169.803 35.546L172.331 32.0274H173.052V39.2929H172.322V33.1899L170.033 36.3659H169.584L167.275 33.1899V39.2929ZM175.755 39.2929H175.017V32.0274H180.503V39.2929H179.763V32.7228H175.755V39.2929ZM182.552 39.2929H181.783L184.901 31.9859H185.591L188.718 39.2929H187.939L187.07 37.2897H183.402L182.552 39.2929ZM185.241 32.9511L183.652 36.615H186.83L185.241 32.9511ZM190.737 39.2929H189.997V32.0274H190.737V35.0478H194.894V32.0274H195.634V39.2929H194.894V35.7432H190.737V39.2929ZM198.219 39.2929H197.599V32.0274H198.328V38.0059L202.675 32.0274H203.326V39.2929H202.596V33.2937L198.219 39.2929ZM205.589 39.2929H204.729L206.988 35.9508C206.468 35.8608 206.063 35.6428 205.769 35.2969C205.482 34.9508 205.339 34.5184 205.339 33.9995C205.339 33.3975 205.536 32.92 205.928 32.5671C206.321 32.2072 206.858 32.0274 207.538 32.0274H210.675V39.2929H209.936V36.0234H207.797L205.589 39.2929ZM207.587 35.328H209.936V32.7228H207.587C207.108 32.7228 206.735 32.837 206.468 33.0653C206.201 33.2937 206.068 33.6154 206.068 34.0306C206.068 34.4458 206.201 34.7675 206.468 34.9959C206.735 35.2172 207.108 35.328 207.587 35.328Z" fill="white"/>
</g>
<g filter="url(#filter2_d_97_247)">
<path d="M76.8702 6.33929V8.28718H71.3847V23.7241H69.2749V8.28718H63.7424V6.33929H76.8702ZM86.0377 6.02277C88.4918 6.02277 90.4062 6.87497 91.7817 8.57935C93.1565 10.2838 93.8445 12.4345 93.8445 15.0317C93.8445 17.6289 93.1565 19.7796 91.7817 21.4841C90.4062 23.1885 88.4918 24.0406 86.0377 24.0406C83.5685 24.0406 81.6463 23.1965 80.2708 21.5084C78.911 19.804 78.2315 17.6451 78.2315 15.0317C78.2315 12.4183 78.911 10.2675 80.2708 8.57935C81.6463 6.87497 83.5685 6.02277 86.0377 6.02277ZM81.7947 20.0231C82.7477 21.3705 84.1624 22.0441 86.0377 22.0441C87.9135 22.0441 89.3276 21.3705 90.2812 20.0231C91.2342 18.6759 91.7109 17.0121 91.7109 15.0317C91.7109 13.0514 91.2342 11.3875 90.2812 10.0402C89.3276 8.69301 87.9135 8.01932 86.0377 8.01932C84.1624 8.01932 82.7477 8.69301 81.7947 10.0402C80.8412 11.3875 80.365 13.0514 80.365 15.0317C80.365 17.0121 80.8412 18.6759 81.7947 20.0231ZM97.2757 6.33929H110.685V23.7241H108.575V8.33588H99.3858V23.7241H97.2757V6.33929ZM127.538 21.7275H129.953V27.9851H127.867V23.7241H115.184V27.9851H113.097V21.7275H114.832C116.239 18.6434 116.942 14.6827 116.942 9.84548V6.33929H127.538V21.7275ZM125.452 21.7275V8.33588H118.958V10.2107C118.958 14.9506 118.333 18.7895 117.083 21.7275H125.452ZM139.677 6.02277C142.131 6.02277 144.045 6.87497 145.42 8.57935C146.796 10.2838 147.483 12.4345 147.483 15.0317C147.483 17.6289 146.796 19.7796 145.42 21.4841C144.045 23.1885 142.131 24.0406 139.677 24.0406C137.207 24.0406 135.285 23.1965 133.91 21.5084C132.551 19.804 131.87 17.6451 131.87 15.0317C131.87 12.4183 132.551 10.2675 133.91 8.57935C135.285 6.87497 137.207 6.02277 139.677 6.02277ZM135.434 20.0231C136.387 21.3705 137.801 22.0441 139.677 22.0441C141.552 22.0441 142.967 21.3705 143.92 20.0231C144.874 18.6759 145.351 17.0121 145.351 15.0317C145.351 13.0514 144.874 11.3875 143.92 10.0402C142.967 8.69301 141.552 8.01932 139.677 8.01932C137.801 8.01932 136.387 8.69301 135.434 10.0402C134.481 11.3875 134.004 13.0514 134.004 15.0317C134.004 17.0121 134.481 18.6759 135.434 20.0231ZM150.915 23.7241V6.33929H154.431L158.651 14.496H159.167L163.316 6.33929H166.856V23.7241H164.793V8.82282H164.277L159.987 17.077H157.784L153.494 8.82282H152.978V23.7241H150.915ZM173.239 23.7241H170.802V20.8997H173.239V23.7241ZM177.174 6.33929H184.253C186.066 6.33929 187.465 6.79382 188.449 7.70282C189.434 8.61183 189.926 9.88603 189.926 11.5255C189.926 13.1812 189.434 14.4717 188.449 15.3969C187.465 16.306 186.066 16.7604 184.253 16.7604H179.283V23.7241H177.174V6.33929ZM179.283 14.8126H183.902C186.496 14.8126 187.794 13.725 187.794 11.5498C187.794 9.37478 186.496 8.28718 183.902 8.28718H179.283V14.8126ZM202.153 7.77585H202.434C204.793 7.77585 206.653 8.37644 208.013 9.57762C209.389 10.7626 210.076 12.4995 210.076 14.7882C210.076 17.0932 209.396 18.8382 208.036 20.0231C206.677 21.2081 204.81 21.8006 202.434 21.8006H202.153V24.0406H200.09V21.8006H199.808C197.432 21.8006 195.565 21.2081 194.205 20.0231C192.845 18.8382 192.166 17.0932 192.166 14.7882C192.166 12.4995 192.845 10.7626 194.205 9.57762C195.581 8.37644 197.448 7.77585 199.808 7.77585H200.09V5.7793H202.153V7.77585ZM199.808 19.8527H200.09V9.72375H199.808C198.058 9.72375 196.691 10.1539 195.705 11.0142C194.736 11.8583 194.252 13.1163 194.252 14.7882C194.252 16.4763 194.736 17.7425 195.705 18.5866C196.691 19.4306 198.058 19.8527 199.808 19.8527ZM202.153 19.8527H202.434C204.169 19.8527 205.529 19.4306 206.513 18.5866C207.497 17.7425 207.99 16.4763 207.99 14.7882C207.99 13.1163 207.497 11.8583 206.513 11.0142C205.544 10.1539 204.184 9.72375 202.434 9.72375H202.153V19.8527Z" fill="white"/>
</g>
<g filter="url(#filter3_d_97_247)">
<path d="M67.6077 39.4175C66.5885 39.4175 65.7323 39.0646 65.0394 38.3588C64.3598 37.653 64.0202 36.7534 64.0202 35.6601C64.0202 34.5737 64.3598 33.6777 65.0394 32.9719C65.7256 32.2591 66.5817 31.9028 67.6077 31.9028C68.3672 31.9028 69.0202 32.0827 69.5664 32.4426V33.2314C68.9535 32.823 68.3039 32.619 67.6178 32.619C66.8183 32.619 66.1421 32.9096 65.5892 33.4909C65.0428 34.0582 64.7697 34.7813 64.7697 35.6601C64.7697 36.5458 65.0428 37.2723 65.5892 37.8398C66.1421 38.4141 66.8249 38.7013 67.6377 38.7013C68.4506 38.7013 69.1433 38.459 69.7163 37.9747V38.7739C69.1433 39.2029 68.4405 39.4175 67.6077 39.4175ZM73.7282 39.2929H72.9887V32.7228H70.5801V32.0274H76.1666V32.7228H73.7282V39.2929ZM78.2438 39.2929H77.5043V32.0274H80.4423C81.1353 32.0274 81.6814 32.2107 82.0811 32.5775C82.4809 32.9442 82.6807 33.432 82.6807 34.041C82.6807 34.6637 82.4809 35.1619 82.0811 35.5356C81.6814 35.9023 81.1353 36.0857 80.4423 36.0857H78.2438V39.2929ZM78.2438 32.7228V35.3903H80.3923C80.8856 35.3903 81.2681 35.2761 81.5415 35.0478C81.8149 34.8124 81.9513 34.4837 81.9513 34.0617C81.9513 33.6326 81.8149 33.304 81.5415 33.0757C81.2753 32.8404 80.892 32.7228 80.3923 32.7228H78.2438ZM84.8594 32.9823C85.5324 32.2625 86.3719 31.9028 87.3776 31.9028C88.377 31.9028 89.2136 32.2625 89.886 32.9823C90.5591 33.7019 90.8952 34.5945 90.8952 35.6601C90.8952 36.7326 90.5591 37.6287 89.886 38.3484C89.22 39.061 88.3841 39.4175 87.3776 39.4175C86.3654 39.4175 85.5261 39.061 84.8594 38.3484C84.1934 37.6356 83.86 36.7396 83.86 35.6601C83.86 34.5875 84.1934 33.6949 84.8594 32.9823ZM85.409 37.8294C85.9357 38.4107 86.5918 38.7013 87.3776 38.7013C88.1642 38.7013 88.8203 38.4107 89.3463 37.8294C89.8795 37.2412 90.1458 36.5181 90.1458 35.6601C90.1458 34.8021 89.8795 34.0789 89.3463 33.4909C88.8203 32.9096 88.1642 32.619 87.3776 32.619C86.5918 32.619 85.9357 32.9096 85.409 33.4909C84.8765 34.0789 84.6095 34.8021 84.6095 35.6601C84.6095 36.5181 84.8765 37.2412 85.409 37.8294ZM93.2116 39.2929H92.592V32.0274H93.3215V38.0059L97.6685 32.0274H98.3182V39.2929H97.5886V33.2937L93.2116 39.2929ZM102.8 39.2929H102.061V32.7228H99.6521V32.0274H105.238V32.7228H102.8V39.2929ZM111.523 39.2929H106.576V32.0274H111.373V32.7228H107.316V35.0478H110.643V35.7432H107.316V38.5975H111.523V39.2929ZM112.109 39.2929V38.5871C112.176 38.6009 112.269 38.6079 112.389 38.6079C112.696 38.6079 112.938 38.4971 113.118 38.2757C113.305 38.0542 113.455 37.7324 113.568 37.3105C113.648 37.0267 113.701 36.7153 113.728 36.3763C113.768 35.9887 113.798 35.622 113.818 35.2761C113.831 35.02 113.845 34.5979 113.858 34.0098L113.898 32.0274H118.275V39.2929H117.535V32.7228H114.617L114.567 34.3835C114.527 35.7466 114.427 36.7707 114.267 37.4558C114.128 38.0785 113.908 38.5386 113.608 38.8362C113.315 39.1268 112.908 39.2825 112.389 39.3033C112.236 39.3033 112.142 39.2997 112.109 39.2929ZM123.067 39.2929H120.239V32.0274H120.978V34.7364H123.067C123.86 34.7364 124.473 34.9474 124.906 35.3695C125.352 35.7915 125.576 36.3416 125.576 37.0198C125.576 37.7117 125.352 38.2653 124.906 38.6805C124.46 39.0887 123.847 39.2929 123.067 39.2929ZM120.978 35.4318V38.5975H123.017C123.59 38.5975 124.037 38.4626 124.356 38.1927C124.676 37.9159 124.836 37.5249 124.836 37.0198C124.836 36.5147 124.676 36.1237 124.356 35.847C124.043 35.5701 123.597 35.4318 123.017 35.4318H120.978ZM127.78 39.2929H127.041V32.0274H127.78V35.0478H131.938V32.0274H132.677V39.2929H131.938V35.7432H127.78V39.2929ZM134.724 39.2929H133.954L137.072 31.9859H137.762L140.889 39.2929H140.11L139.241 37.2897H135.573L134.724 39.2929ZM137.412 32.9511L135.823 36.615H139.001L137.412 32.9511ZM142.341 39.2929H141.481L143.74 35.9508C143.22 35.8608 142.814 35.6428 142.52 35.2969C142.234 34.9508 142.091 34.5184 142.091 33.9995C142.091 33.3975 142.287 32.92 142.68 32.5671C143.074 32.2072 143.61 32.0274 144.289 32.0274H147.428V39.2929H146.688V36.0234H144.549L142.341 39.2929ZM144.339 35.328H146.688V32.7228H144.339C143.86 32.7228 143.486 32.837 143.22 33.0653C142.954 33.2937 142.82 33.6154 142.82 34.0306C142.82 34.4458 142.954 34.7675 143.22 34.9959C143.486 35.2172 143.86 35.328 144.339 35.328ZM152.035 32.0274H152.773V35.1827L156.012 32.0274H156.991L153.552 35.3488L157.52 39.2929H156.481L152.773 35.5979V39.2929H152.035V32.0274ZM158.814 32.9823C159.487 32.2625 160.326 31.9028 161.332 31.9028C162.332 31.9028 163.167 32.2625 163.841 32.9823C164.513 33.7019 164.85 34.5945 164.85 35.6601C164.85 36.7326 164.513 37.6287 163.841 38.3484C163.174 39.061 162.338 39.4175 161.332 39.4175C160.319 39.4175 159.48 39.061 158.814 38.3484C158.148 37.6356 157.814 36.7396 157.814 35.6601C157.814 34.5875 158.148 33.6949 158.814 32.9823ZM159.364 37.8294C159.889 38.4107 160.547 38.7013 161.332 38.7013C162.119 38.7013 162.775 38.4107 163.301 37.8294C163.834 37.2412 164.1 36.5181 164.1 35.6601C164.1 34.8021 163.834 34.0789 163.301 33.4909C162.775 32.9096 162.119 32.619 161.332 32.619C160.547 32.619 159.889 32.9096 159.364 33.4909C158.83 34.0789 158.564 34.8021 158.564 35.6601C158.564 36.5181 158.83 37.2412 159.364 37.8294ZM167.275 39.2929H166.546V32.0274H167.275L169.803 35.546L172.331 32.0274H173.052V39.2929H172.322V33.1899L170.033 36.3659H169.584L167.275 33.1899V39.2929ZM175.755 39.2929H175.017V32.0274H180.503V39.2929H179.763V32.7228H175.755V39.2929ZM182.552 39.2929H181.783L184.901 31.9859H185.591L188.718 39.2929H187.939L187.07 37.2897H183.402L182.552 39.2929ZM185.241 32.9511L183.652 36.615H186.83L185.241 32.9511ZM190.737 39.2929H189.997V32.0274H190.737V35.0478H194.894V32.0274H195.634V39.2929H194.894V35.7432H190.737V39.2929ZM198.219 39.2929H197.599V32.0274H198.328V38.0059L202.675 32.0274H203.326V39.2929H202.596V33.2937L198.219 39.2929ZM205.589 39.2929H204.729L206.988 35.9508C206.468 35.8608 206.063 35.6428 205.769 35.2969C205.482 34.9508 205.339 34.5184 205.339 33.9995C205.339 33.3975 205.536 32.92 205.928 32.5671C206.321 32.2072 206.858 32.0274 207.538 32.0274H210.675V39.2929H209.936V36.0234H207.797L205.589 39.2929ZM207.587 35.328H209.936V32.7228H207.587C207.108 32.7228 206.735 32.837 206.468 33.0653C206.201 33.2937 206.068 33.6154 206.068 34.0306C206.068 34.4458 206.201 34.7675 206.468 34.9959C206.735 35.2172 207.108 35.328 207.587 35.328Z" fill="white"/>
</g>
</g>
<defs>
<filter id="filter0_d_97_247" x="59.7424" y="5.7793" width="154.334" height="30.2056" filterUnits="userSpaceOnUse" color-interpolation-filters="sRGB">
<feFlood flood-opacity="0" result="BackgroundImageFix"/>
<feColorMatrix in="SourceAlpha" type="matrix" values="0 0 0 0 0 0 0 0 0 0 0 0 0 0 0 0 0 0 127 0" result="hardAlpha"/>
<feOffset dy="4"/>
<feGaussianBlur stdDeviation="2"/>
<feComposite in2="hardAlpha" operator="out"/>
<feColorMatrix type="matrix" values="0 0 0 0 0 0 0 0 0 0 0 0 0 0 0 0 0 0 0.25 0"/>
<feBlend mode="normal" in2="BackgroundImageFix" result="effect1_dropShadow_97_247"/>
<feBlend mode="normal" in="SourceGraphic" in2="effect1_dropShadow_97_247" result="shape"/>
</filter>
<filter id="filter1_d_97_247" x="60.0202" y="31.9028" width="154.655" height="15.5146" filterUnits="userSpaceOnUse" color-interpolation-filters="sRGB">
<feFlood flood-opacity="0" result="BackgroundImageFix"/>
<feColorMatrix in="SourceAlpha" type="matrix" values="0 0 0 0 0 0 0 0 0 0 0 0 0 0 0 0 0 0 127 0" result="hardAlpha"/>
<feOffset dy="4"/>
<feGaussianBlur stdDeviation="2"/>
<feComposite in2="hardAlpha" operator="out"/>
<feColorMatrix type="matrix" values="0 0 0 0 0 0 0 0 0 0 0 0 0 0 0 0 0 0 0.25 0"/>
<feBlend mode="normal" in2="BackgroundImageFix" result="effect1_dropShadow_97_247"/>
<feBlend mode="normal" in="SourceGraphic" in2="effect1_dropShadow_97_247" result="shape"/>
</filter>
<filter id="filter2_d_97_247" x="59.7424" y="5.7793" width="154.334" height="30.2056" filterUnits="userSpaceOnUse" color-interpolation-filters="sRGB">
<feFlood flood-opacity="0" result="BackgroundImageFix"/>
<feColorMatrix in="SourceAlpha" type="matrix" values="0 0 0 0 0 0 0 0 0 0 0 0 0 0 0 0 0 0 127 0" result="hardAlpha"/>
<feOffset dy="4"/>
<feGaussianBlur stdDeviation="2"/>
<feComposite in2="hardAlpha" operator="out"/>
<feColorMatrix type="matrix" values="0 0 0 0 0 0 0 0 0 0 0 0 0 0 0 0 0 0 0.25 0"/>
<feBlend mode="normal" in2="BackgroundImageFix" result="effect1_dropShadow_97_247"/>
<feBlend mode="normal" in="SourceGraphic" in2="effect1_dropShadow_97_247" result="shape"/>
</filter>
<filter id="filter3_d_97_247" x="60.0202" y="31.9028" width="154.655" height="15.5146" filterUnits="userSpaceOnUse" color-interpolation-filters="sRGB">
<feFlood flood-opacity="0" result="BackgroundImageFix"/>
<feColorMatrix in="SourceAlpha" type="matrix" values="0 0 0 0 0 0 0 0 0 0 0 0 0 0 0 0 0 0 127 0" result="hardAlpha"/>
<feOffset dy="4"/>
<feGaussianBlur stdDeviation="2"/>
<feComposite in2="hardAlpha" operator="out"/>
<feColorMatrix type="matrix" values="0 0 0 0 0 0 0 0 0 0 0 0 0 0 0 0 0 0 0.25 0"/>
<feBlend mode="normal" in2="BackgroundImageFix" result="effect1_dropShadow_97_247"/>
<feBlend mode="normal" in="SourceGraphic" in2="effect1_dropShadow_97_247" result="shape"/>
</filter>
</defs>
</svg>
