<svg width="75" height="75" viewBox="0 0 75 75" fill="none" xmlns="http://www.w3.org/2000/svg">
<path d="M74.8947 41.7454C74.8945 41.745 74.8945 41.7448 74.8944 41.7444L60.7341 6.18913C60.4335 5.43367 59.5772 5.06487 58.8218 5.36539C58.8212 5.36558 58.8207 5.36576 58.8201 5.36613L1.37363 28.2408C1.13935 28.342 0.93618 28.5036 0.78472 28.709C0.306968 28.9572 0.00515294 29.4486 0 29.9869V68.2659C0 69.079 0.659209 69.7382 1.47227 69.7382H63.3076C64.1207 69.7382 64.7799 69.079 64.7799 68.2659V47.3597L74.0728 43.6584C74.8281 43.3571 75.196 42.5006 74.8947 41.7454ZM61.8353 66.7936H2.94454V31.4592H61.8353V66.7936ZM24.5648 28.522L49.2165 18.699C51.4166 21.0116 54.4651 22.3259 57.657 22.3385L60.1157 28.522H24.5648ZM64.7799 44.1972V29.9869C64.7799 29.1738 64.1207 28.5146 63.3076 28.5146H63.284L60.1643 20.6792C60.1297 20.6139 60.0894 20.5517 60.0436 20.4937C59.8857 19.7846 59.229 19.3008 58.5051 19.3601C55.5351 19.6308 52.6298 18.3797 50.7859 16.0357C50.3271 15.4694 49.5207 15.3286 48.897 15.7059C48.8271 15.7142 48.7577 15.727 48.6894 15.7442L18.5933 27.7284C18.2291 27.8712 17.9378 28.1545 17.785 28.5146H8.64517L58.5433 8.64635L71.6156 41.4706L64.7799 44.1972Z" fill="#0EA422"/>
<path d="M6.94024 56.8542C9.79865 57.6991 12.0354 59.9331 12.8838 62.7904C13.0699 63.4141 13.6435 63.8414 14.2942 63.8416C14.3706 63.8368 14.4464 63.8254 14.521 63.8077C14.587 63.8265 14.6546 63.8403 14.7227 63.849H50.0571C50.1179 63.841 50.1779 63.8287 50.2368 63.8122C50.9723 63.991 51.7136 63.54 51.8927 62.8044C51.8932 62.8016 51.894 62.799 51.8945 62.7963C52.7407 59.936 54.9778 57.6989 57.8381 56.8527C58.5317 56.6407 58.9627 55.9495 58.8481 55.2332C58.8677 55.1618 58.8819 55.089 58.8908 55.0153V43.2372C58.8821 43.1634 58.8674 43.0905 58.8466 43.0193C58.962 42.3028 58.5308 41.6112 57.8366 41.3998C54.9764 40.5538 52.7398 38.3158 51.896 35.4548C51.6829 34.7564 50.9848 34.3242 50.2647 34.4448C50.1966 34.4258 50.1272 34.412 50.0571 34.4036H14.7227C14.6485 34.4124 14.5751 34.4271 14.5033 34.4477C13.7872 34.3336 13.0964 34.7645 12.8838 35.4577C12.0371 38.3174 9.80012 40.5538 6.94024 41.3998C6.24662 41.6118 5.81561 42.303 5.93026 43.0193C5.91112 43.0909 5.89732 43.1636 5.88904 43.2372V55.0153C5.8975 55.0845 5.91131 55.153 5.93026 55.22C5.80954 55.9408 6.24146 56.6398 6.94024 56.8542ZM8.83358 43.8349C11.7899 42.6475 14.133 40.3044 15.3204 37.3481H49.4579C50.6459 40.3044 52.9895 42.6475 55.9462 43.8349V54.4176C52.9908 55.6063 50.6481 57.949 49.4594 60.9044H15.3204C14.1317 57.949 11.789 55.6063 8.83358 54.4176V43.8349Z" fill="#0EA422"/>
<path d="M32.3899 57.96C37.2686 57.96 41.2235 54.0051 41.2235 49.1263C41.2235 44.2476 37.2686 40.2927 32.3899 40.2927C27.5112 40.2927 23.5563 44.2476 23.5563 49.1263C23.5611 54.0031 27.5132 57.9552 32.3899 57.96ZM32.3899 43.2373C35.6423 43.2373 38.279 45.8739 38.279 49.1263C38.279 52.3788 35.6423 55.0154 32.3899 55.0154C29.1375 55.0154 26.5008 52.3788 26.5008 49.1263C26.5008 45.8739 29.1375 43.2373 32.3899 43.2373Z" fill="#0EA422"/>
<path d="M16.195 51.3348C17.4146 51.3348 18.4034 50.346 18.4034 49.1264C18.4034 47.9068 17.4146 46.918 16.195 46.918C14.9754 46.918 13.9866 47.9068 13.9866 49.1264C13.9866 50.3461 14.9754 51.3348 16.195 51.3348ZM16.195 48.3902C16.6015 48.3902 16.9311 48.7198 16.9311 49.1264C16.9311 49.5329 16.6015 49.8625 16.195 49.8625C15.7884 49.8625 15.4588 49.5329 15.4588 49.1264C15.4588 48.7198 15.7884 48.3902 16.195 48.3902Z" fill="#0EA422"/>
<path d="M48.5849 51.3348C49.8045 51.3348 50.7933 50.346 50.7933 49.1264C50.7933 47.9068 49.8045 46.918 48.5849 46.918C47.3653 46.918 46.3765 47.9068 46.3765 49.1264C46.3765 50.3461 47.3653 51.3348 48.5849 51.3348ZM48.5849 48.3902C48.9915 48.3902 49.3211 48.7198 49.3211 49.1264C49.3211 49.5329 48.9915 49.8625 48.5849 49.8625C48.1784 49.8625 47.8488 49.5329 47.8488 49.1264C47.8488 48.7198 48.1784 48.3902 48.5849 48.3902Z" fill="#0EA422"/>
</svg>
