<svg width="75" height="75" viewBox="0 0 75 75" fill="none" xmlns="http://www.w3.org/2000/svg">
<g clip-path="url(#clip0_97_2069)">
<path d="M44.3182 14.2451V8.40646C44.3182 -2.80248 0 -2.80248 0 8.40646V42.5569C0 46.9633 6.8975 49.7101 15.1953 50.6867C12.1602 52.0479 10.2273 53.8865 10.2273 56.2171V66.4622C10.2273 72.0668 21.375 74.9998 32.3864 74.9998C43.3979 74.9998 54.5456 72.0666 54.5456 66.4622V61.3114C64.9733 61.0247 75.0002 58.1173 75.0002 52.8021V22.0667C75 14.9904 57.3426 12.3868 44.3182 14.2451ZM22.1592 3.40884C34.2908 3.40884 40.9091 6.78624 40.9091 8.52248C40.9091 10.2587 34.2906 13.6361 22.1592 13.6361C10.0277 13.6361 3.4092 10.2587 3.4092 8.52248C3.40904 6.7864 10.0275 3.40884 22.1592 3.40884ZM3.40904 13.2659C7.54518 15.7552 14.8716 17.0453 22.159 17.0453C29.4464 17.0453 36.773 15.7552 40.9091 13.2659V14.9597C34.9855 16.2735 30.6818 18.6726 30.6818 22.159V23.1675C28.0104 23.596 25.1268 23.8634 22.1592 23.8634C10.0275 23.8634 3.4092 20.486 3.4092 18.7498L3.40904 13.2659ZM34.0909 47.3567C34.4153 47.5518 34.7528 47.7415 35.115 47.9218C34.7739 47.9076 34.4333 47.8937 34.0909 47.8847V47.3567ZM3.40904 23.4931C7.54518 25.9825 14.8716 27.2726 22.159 27.2726C25.1096 27.2726 27.9775 27.0076 30.6817 26.6037V35.0993C28.0103 35.5279 25.1267 35.7953 22.159 35.7953C10.0274 35.7953 3.40904 32.4179 3.40904 30.6816V23.4931ZM3.40904 42.6135V35.425C7.54518 37.9144 14.8716 39.2045 22.159 39.2045C25.1096 39.2045 27.9775 38.9395 30.6817 38.5355V47.0312C28.0103 47.4598 25.1267 47.7272 22.159 47.7272C10.0275 47.7272 3.40904 44.3496 3.40904 42.6135ZM51.1364 66.4771C51.1364 68.2134 44.5179 71.5908 32.3864 71.5908C20.255 71.5908 13.6363 68.2134 13.6363 66.4771V60.9931C17.7725 63.4824 25.0989 64.7725 32.3863 64.7725C39.3619 64.7725 46.3828 63.5935 50.599 61.3098C50.7761 61.3165 50.9584 61.3173 51.1362 61.3227V66.4771H51.1364ZM32.3864 61.3635C20.2548 61.3635 13.6365 57.9861 13.6365 56.2498C13.6365 54.5136 20.255 51.1362 32.3864 51.1362C44.5179 51.1362 51.1364 54.5136 51.1364 56.2498C51.1364 57.9861 44.5179 61.3635 32.3864 61.3635ZM71.591 52.8408C71.591 54.4906 65.5511 57.5882 54.5454 57.8953V56.2498C54.5454 54.1202 52.9338 52.3988 50.3342 51.0798C51.1677 51.1135 52.0038 51.1362 52.8408 51.1362C60.1283 51.1362 67.4548 49.8461 71.5908 47.3567V52.8408H71.591ZM71.591 42.6135C71.591 44.3498 64.9725 47.7272 52.841 47.7272C40.7095 47.7272 34.091 44.3498 34.091 42.6135V37.1295C38.227 39.6188 45.5536 40.9089 52.841 40.9089C60.1284 40.9089 67.455 39.6188 71.591 37.1295V42.6135ZM71.591 32.3862C71.591 34.1225 64.9725 37.4999 52.841 37.4999C40.7095 37.4999 34.091 34.1225 34.091 32.3862V26.9022C38.227 29.3916 45.5536 30.6816 52.841 30.6816C60.1284 30.6816 67.455 29.3916 71.591 26.9022V32.3862ZM52.841 27.2726C40.7094 27.2726 34.091 23.8952 34.091 22.159C34.091 20.4227 40.7095 17.0453 52.841 17.0453C64.9725 17.0453 71.591 20.4227 71.591 22.159C71.591 23.8952 64.9725 27.2726 52.841 27.2726Z" fill="#0EA422"/>
</g>
<defs>
<clipPath id="clip0_97_2069">
<rect width="75" height="75" fill="white"/>
</clipPath>
</defs>
</svg>
