<svg width="75" height="75" viewBox="0 0 75 75" fill="none" xmlns="http://www.w3.org/2000/svg">
<path d="M73.5352 13.6097H68.1779V8.26758C68.1779 7.45869 67.522 6.80273 66.7131 6.80273H61.36V1.46484C61.36 0.667969 60.6918 0 59.8951 0H40.4169H20.9388H1.46484C0.655957 0 0 0.655957 0 1.46484V20.8954V40.3304V59.7634C0 60.56 0.66665 61.2299 1.46484 61.2299H6.81797V66.5678C6.81797 67.3767 7.47393 68.0326 8.28281 68.0326H13.64V73.3747C13.64 74.1836 14.296 74.8396 15.1049 74.8396H73.5352C74.344 74.8396 75 74.1836 75 73.3747V15.0746C75 14.2657 74.344 13.6097 73.5352 13.6097ZM24.4811 58.3003L34.7952 48.0098C36.6693 46.1401 38.5431 44.2698 40.4172 42.4L48.082 50.0478L39.8111 58.3003H24.4811ZM5.00698 58.3003L20.9413 42.4015L28.6062 50.0462L20.3331 58.3003H5.00698ZM58.4303 39.7226L50.1542 47.9767L42.4912 40.3307C47.8043 35.0297 53.1176 29.7286 58.4303 24.4266V39.7226ZM30.68 47.977L23.0149 40.3323L40.4188 22.967L48.0804 30.6148C45.1827 33.5062 42.2851 36.3978 39.3872 39.2892C39.3848 39.2915 39.3823 39.2934 39.38 39.2956C39.3779 39.2977 39.3762 39.3 39.3741 39.3022C37.158 41.5132 34.9421 43.7248 32.7259 45.9357L30.68 47.977ZM2.92969 24.4274L9.12729 30.6139L2.92969 36.7991V24.4274ZM20.9389 22.9649L28.6059 30.6149L19.9455 39.2561C19.9317 39.2687 19.9173 39.2802 19.904 39.2934L11.2027 47.9771L3.53862 40.3302L12.2363 31.6518C12.243 31.645 12.2487 31.6377 12.2553 31.6308L20.9389 22.9649ZM31.7146 12.2171L40.4169 3.53423L48.082 11.1823L39.4242 19.8209C39.4097 19.8344 39.3945 19.8466 39.3803 19.8606C39.3672 19.8737 39.356 19.8879 39.3437 19.9014L30.68 28.5457L23.0128 20.8957L31.6929 12.2367C31.7 12.2298 31.7076 12.2241 31.7146 12.2171ZM9.12803 50.0459L2.92969 56.2333V43.8614L9.12803 50.0459ZM58.4303 20.2878C55.672 23.0408 52.9129 25.793 50.1542 28.5457L42.4928 20.8979L58.4303 4.99585V20.2878ZM50.156 9.11294L43.9591 2.92969H56.353L50.156 9.11294ZM19.9043 19.8583C19.9042 19.8584 19.904 19.8586 19.904 19.8586L11.2009 28.5444L3.53862 20.8957L20.9391 3.53394L28.6046 11.1792L19.9043 19.8583ZM58.4303 43.8614V58.3003H43.9591L58.4303 43.8614ZM36.8744 2.92969L30.6788 9.11016L24.4819 2.92969H36.8744ZM17.3968 2.92969L2.92969 17.3645V2.92969H17.3968ZM72.0703 71.91H16.5697V68.0328H34.3296C35.1385 68.0328 35.7945 67.3768 35.7945 66.5679C35.7945 65.759 35.1385 65.1031 34.3296 65.1031H9.74766V61.23H59.8951C60.704 61.23 61.36 60.5741 61.36 59.7652V20.8976C61.36 20.8972 61.36 20.8966 61.36 20.8966V9.73242H65.2482V65.1031H47.4883C46.6794 65.1031 46.0235 65.759 46.0235 66.5679C46.0235 67.3768 46.6794 68.0328 47.4883 68.0328H66.7131C67.522 68.0328 68.1779 67.3768 68.1779 66.5679V16.5394H72.0703V71.91Z" fill="#0EA422"/>
<path d="M40.911 65.1033C40.1021 65.1033 39.4462 65.7592 39.4462 66.5681C39.4462 67.377 40.1021 68.033 40.911 68.033H40.9151C41.724 68.033 42.3778 67.377 42.3778 66.5681C42.3778 65.7592 41.72 65.1033 40.911 65.1033Z" fill="#0EA422"/>
</svg>
