<svg width="20" height="20" viewBox="0 0 20 20" fill="none" xmlns="http://www.w3.org/2000/svg">
<g clip-path="url(#clip0_97_662)">
<path d="M19.3124 6.55021H19.1215L17.3316 1.73127C17.1749 1.30936 16.7673 1.02588 16.3172 1.02588H3.68277C3.23273 1.02588 2.82504 1.30936 2.66832 1.73127L0.878477 6.55021H0.687578C0.308437 6.55021 0 6.85865 0 7.23779V7.79021C0 8.16935 0.308437 8.47779 0.687578 8.47779H0.789219V14.8993C0.789219 15.0611 0.920352 15.1922 1.08219 15.1922C1.24402 15.1922 1.37516 15.0611 1.37516 14.8993V8.47779H5.97516C6.23258 8.47779 6.47461 8.37756 6.65668 8.19549L10 4.85209L13.3434 8.19549C13.5254 8.37752 13.7675 8.47775 14.0249 8.47775H18.6249V9.25447C18.6249 9.41627 18.756 9.54744 18.9179 9.54744C19.0797 9.54744 19.2108 9.41627 19.2108 9.25447V8.47775H19.3125C19.6916 8.47775 20 8.16932 20 7.79017V7.23775C20 6.85865 19.6916 6.55021 19.3124 6.55021ZM3.21758 1.93525C3.28945 1.74178 3.47641 1.61182 3.68277 1.61182H16.3172C16.5236 1.61182 16.7105 1.74182 16.7824 1.93525L18.4965 6.55021H14.4241L10.6815 2.80764C10.4995 2.62561 10.2575 2.52533 10 2.52533C9.74254 2.52533 9.50055 2.62557 9.31852 2.80764L5.5759 6.55021H1.50348L3.21758 1.93525ZM19.4141 7.79021C19.4141 7.84627 19.3685 7.89186 19.3124 7.89186H14.0249C13.9239 7.89186 13.829 7.85256 13.7577 7.78119L10.2071 4.23064C10.1522 4.17568 10.0777 4.14482 9.99996 4.14482C9.92223 4.14482 9.84777 4.17568 9.79277 4.23064L6.24227 7.78119C6.1709 7.85256 6.07598 7.89186 5.97504 7.89186H0.687578C0.631523 7.89186 0.585938 7.84627 0.585938 7.79021V7.23779C0.585938 7.18174 0.631523 7.13615 0.687578 7.13615H5.69727C5.77496 7.13615 5.84945 7.10529 5.90445 7.05033L9.73289 3.22193C9.80422 3.15057 9.8991 3.11127 10 3.11127C10.101 3.11127 10.1959 3.15057 10.2672 3.22193L14.0956 7.05033C14.1506 7.10529 14.2251 7.13615 14.3028 7.13615H19.3125C19.3686 7.13615 19.4141 7.18174 19.4141 7.23779V7.79021H19.4141Z" fill="#0ABC22"/>
<path d="M17.6157 16.6063C17.7776 16.6063 17.9087 16.4752 17.9087 16.3134V11.1047C17.9087 10.9429 17.7776 10.8118 17.6157 10.8118H13.6697C13.5079 10.8118 13.3768 10.9429 13.3768 11.1047V16.3134C13.3768 16.4752 13.5079 16.6063 13.6697 16.6063H17.6157ZM17.3227 14.7577H15.9357V13.3707H17.3227V14.7577ZM15.3497 14.7577H13.9627V13.3707H15.3497V14.7577ZM17.3227 16.0204H13.9627V15.3436H17.3227V16.0204ZM17.3227 12.7847H15.9357V11.3977H17.3227V12.7847ZM15.3497 11.3977V12.7847H13.9627V11.3977H15.3497Z" fill="#0ABC22"/>
<path d="M6.33025 16.6063C6.49209 16.6063 6.62322 16.4752 6.62322 16.3134V11.1047C6.62322 10.9429 6.49209 10.8118 6.33025 10.8118H2.38428C2.22244 10.8118 2.09131 10.9429 2.09131 11.1047V16.3134C2.09131 16.4752 2.22244 16.6063 2.38428 16.6063H6.33025ZM6.03729 14.7577H4.65025V13.3707H6.03729V14.7577ZM4.06432 14.7577H2.67725V13.3707H4.06432V14.7577ZM6.03729 16.0204H2.67725V15.3436H6.03729V16.0204ZM6.03729 12.7847H4.65025V11.3977H6.03729V12.7847ZM4.06432 11.3977V12.7847H2.67725V11.3977H4.06432Z" fill="#0ABC22"/>
<path d="M10.947 12.0745H9.05298C8.89114 12.0745 8.76001 12.2056 8.76001 12.3674V13.6301C8.76001 13.7919 8.89114 13.9231 9.05298 13.9231H10.947C11.1089 13.9231 11.24 13.7919 11.24 13.6301V12.3674C11.24 12.2056 11.1089 12.0745 10.947 12.0745ZM10.6541 13.3372H9.34595V12.6604H10.6541V13.3372Z" fill="#0ABC22"/>
<path d="M11.5557 8.38208C11.5557 7.52431 10.8578 6.82642 10 6.82642C9.14219 6.82642 8.44434 7.52431 8.44434 8.38208C8.44434 9.23985 9.14219 9.93778 10 9.93778C10.8578 9.93778 11.5557 9.23989 11.5557 8.38208ZM9.03027 8.38208C9.03027 7.84739 9.46531 7.41235 10 7.41235C10.5347 7.41235 10.9697 7.84739 10.9697 8.38208C10.9697 8.91677 10.5347 9.35185 10 9.35185C9.46531 9.35185 9.03027 8.91681 9.03027 8.38208Z" fill="#0ABC22"/>
<path d="M19.707 17.0465H19.2108V10.625C19.2108 10.4632 19.0797 10.332 18.9179 10.332C18.756 10.332 18.6249 10.4632 18.6249 10.625V17.0465H12.5027V11.1049C12.5027 10.9431 12.3716 10.8119 12.2097 10.8119H7.79027C7.62844 10.8119 7.4973 10.9431 7.4973 11.1049V17.0465H1.37512V16.2698C1.37512 16.108 1.24398 15.9768 1.08215 15.9768C0.920312 15.9768 0.78918 16.108 0.78918 16.2698V17.0465H0.292969C0.131133 17.0465 0 17.1777 0 17.3395V18.6811C0 18.8429 0.131133 18.9741 0.292969 18.9741H19.707C19.8689 18.9741 20 18.8429 20 18.6811V17.3395C20 17.1777 19.8689 17.0465 19.707 17.0465ZM8.08324 14.9097H8.50059C8.66242 14.9097 8.79356 14.7786 8.79356 14.6168C8.79356 14.455 8.66242 14.3238 8.50059 14.3238H8.08324V11.3979H11.9168V17.0465H8.08324V14.9097ZM19.4141 18.3881H0.585938V17.6324H19.4141V18.3881Z" fill="#0ABC22"/>
</g>
<defs>
<clipPath id="clip0_97_662">
<rect width="20" height="20" fill="white"/>
</clipPath>
</defs>
</svg>
