<?xml version="1.0"?>
<svg width="340" height="115" xmlns="http://www.w3.org/2000/svg" xmlns:svg="http://www.w3.org/2000/svg">
 <defs>
  <clipPath id="clip0_714_2449">
   <rect fill="white" height="79.72" id="svg_1" transform="translate(0 18)" width="730.28"/>
  </clipPath>
 </defs>
 <g class="layer">
  <title>Layer 1</title>
  <g clip-path="url(#clip0_714_2449)" id="svg_2">
   <path d="m189.91,17.49l-42.06,5.5l0,12.47l42.06,-3.76l0,-14.21z" fill="#E40038" id="svg_3"/>
   <path d="m48.68,62.79c0,-13.87 7.69,-20.21 22.2,-20.21c14.51,0 22.23,6.34 22.23,20.21c0,13.87 -7.66,20.44 -22.23,20.44c-14.57,0 -22.2,-6.57 -22.2,-20.44zm12.71,0.11c0,7.57 2.25,10.2 9.49,10.2c7.24,0 9.44,-2.63 9.44,-10.2c0,-7.57 -2.18,-10.19 -9.44,-10.19c-7.26,0 -9.49,2.59 -9.49,10.19z" fill="#00234D" id="svg_4"/>
   <path d="m167.3,73.14c-7.23,0 -9.48,-2.63 -9.48,-10.2c0,-7.57 2.25,-10.19 9.48,-10.19c7.23,0 9.45,2.59 9.45,10.19c0,7.6 -2.18,10.2 -9.45,10.2zm14.64,-27l-34.09,-23.15l0,12.45l10.63,7.2l2.09,1.23c-2.65,-0.14 -5.28,0.53 -7.53,1.93c-5.25,3.17 -8,8.75 -8,17c0,13.87 7.65,20.43 22.19,20.43c14.54,0 22.23,-6.56 22.23,-20.43c0,-8 -2.6,-13.51 -7.59,-16.72" fill="#00234D" id="svg_5"/>
   <path d="m22.46,72.86c-7.23,0 -9.49,-2.63 -9.49,-10.2c0,-7.57 2.26,-10.19 9.49,-10.19c7.23,0 9.45,2.59 9.45,10.19c0,7.6 -2.18,10.2 -9.45,10.2zm4.34,-30.35c-6.87,0 -12.45,4.24 -13.84,6l0,-5.1l-12.18,0l0,52.13l12.11,0l0,-18.54c1.42,1.8 7,6 13.87,6c11.47,0 17.77,-6.23 17.77,-20.25c0,-14.02 -6.3,-20.21 -17.73,-20.21" fill="#00234D" id="svg_6"/>
   <path d="m272.86,43.45l0,14.15l-16.07,0l0,-14.15l-12.19,0l0,38.29l12.19,0l0,-14.34l16.07,0l0,14.34l12.19,0l0,-38.29l-12.19,0z" fill="#00234D" id="svg_7"/>
   <path d="m206.34,62.66c0,-7.6 2.18,-10.19 9.45,-10.19c7.27,0 9.49,2.59 9.49,10.19c0,7.6 -2.26,10.2 -9.49,10.2c-7.23,0 -9.45,-2.63 -9.45,-10.2zm-12.62,0.06c0,14 6.3,20.25 17.77,20.25c6.9,0 12.45,-4.17 13.87,-6l0,4.77l12.11,0l0,-38.33l-12.18,0l0,5.1c-1.39,-1.76 -7,-6 -13.84,-6c-11.43,0 -17.73,6.23 -17.73,20.21z" fill="#00234D" id="svg_8"/>
   <path d="m128.46,67.59c-0.93,4 -3.51,5.51 -9,5.51c-7.23,0 -9.48,-2.63 -9.48,-10.2c0,-7.57 2.25,-10.19 9.48,-10.19c5.5,0 8.08,1.49 9,5.51l12.71,-1c-1.9,-10 -9.33,-14.67 -21.73,-14.67c-14.5,0 -22.19,6.34 -22.19,20.21c0,13.87 7.65,20.44 22.19,20.44c12.38,0 19.74,-4.76 21.69,-14.68l-12.67,-0.93z" fill="#00234D" id="svg_9"/>
   <path d="m336.63,81.73l-19.29,-20.1l18.25,-18.18l-15.07,0l-16.36,16.63l0,-16.63l-11.97,0l0,38.28l11.97,0l0,-13.39l0,-3.31l0,-0.93l16.8,17.63l15.67,0z" fill="#00234D" id="svg_10"/>
   <path d="m-177.05,48.71l-7.57,0l0,-5.44l-2.14,0l0,13.05l2.14,0l0,-5.62l7.57,0l0,5.62l2.14,0l0,-13.05l-2.14,0l0,5.44z" fill="#E40038" id="svg_11"/>
   <path d="m-140.05,45.25l5.47,0l0,11.07l2.14,0l0,-11.07l5.47,0l0,-1.99l-13.08,0l0,1.99z" fill="#E40038" id="svg_12"/>
   <path d="m-99.76,45.25l0,4.16l-4.28,0c-1.71,0 -2.69,-0.78 -2.69,-2.14c0,-1.67 1.46,-2 2.69,-2l4.28,-0.02zm-9.16,2c-0.05,0.92 0.23,1.82 0.8,2.54c0.57,0.71 1.39,1.2 2.29,1.35l-3.86,5.19l2.55,0l3.62,-4.92l3.76,0l0,4.92l2.15,0l0,-13l-6.58,0c-2.92,0 -4.73,1.53 -4.73,4" fill="#E40038" id="svg_13"/>
   <path d="m-74.32,43.27l-2.14,0l0,11.07l-6.12,0l0,-11.07l-2.14,0l0,11.07l-6.12,0l0,-11.07l-2.14,0l0,13.05l18.99,0l0,3.88l1.99,0l0,-5.86l-2.32,0l0,-11.07z" fill="#E40038" id="svg_14"/>
   <path d="m-67.05,53.2l0,-9.94l-2.14,0l0,13.06l2.01,0l7.96,-9.96l0,9.96l2.14,0l0,-13.06l-2.01,0l-7.96,9.94z" fill="#E40038" id="svg_15"/>
   <path d="m-160.35,50.14l0,2.36c0,0.2 -0.05,0.39 -0.14,0.57c-0.09,0.17 -0.23,0.32 -0.39,0.43c-0.51,0.33 -1.06,0.58 -1.64,0.76c-0.65,0.19 -1.32,0.29 -2,0.29c-1.64,0 -2.66,-0.35 -3.29,-1.14c-0.71,-1.08 -1.03,-2.37 -0.91,-3.65c0,-1.81 0.3,-3 1,-3.74c0.43,-0.4 0.94,-0.7 1.5,-0.89c0.56,-0.18 1.16,-0.24 1.74,-0.17c0.68,0 1.35,0.1 2,0.29c0.54,0.19 1.06,0.44 1.56,0.73c0.18,0.1 0.32,0.25 0.43,0.42c0.1,0.18 0.16,0.38 0.16,0.58c0,0.77 0,2 0,3.14m0,-5.35c-1.2,-1.17 -2.8,-1.83 -4.48,-1.86c-4,0 -6.17,2.35 -6.17,6.81c0,4.46 2.13,6.8 6.17,6.8c0.84,-0.01 1.66,-0.18 2.43,-0.5c0.77,-0.33 1.47,-0.8 2.05,-1.4l0,1.66l2.13,0l0,-13l-2.1,0l-0.03,1.49z" fill="#E40038" id="svg_16"/>
   <path d="m-114.39,49.72c0,3.55 -1.14,4.81 -4.35,4.81c-3.21,0 -4.34,-1.26 -4.34,-4.81c0,-3.55 1.17,-4.8 4.34,-4.8c3.17,0 4.35,1.3 4.35,4.8zm-4.35,-6.8c-4.32,0 -6.6,2.35 -6.6,6.78c0,4.43 2.28,6.83 6.6,6.83c4.32,0 6.59,-2.36 6.59,-6.83c0,-4.47 -2.28,-6.78 -6.59,-6.78z" fill="#E40038" id="svg_17"/>
   <path d="m-211.96,79.83l-4.9,0l0,-3.69l4.9,0c1.64,0 2.54,0.65 2.54,1.83c0,1.18 -0.86,1.91 -2.57,1.91m-0.15,-5.74l-4.72,0l0,-3.45l4.78,0c1.43,0 2.25,0.6 2.25,1.65c0,1.48 -1.26,1.79 -2.31,1.79m2.86,0.86c0.49,-0.27 0.89,-0.67 1.16,-1.16c0.28,-0.48 0.41,-1.03 0.4,-1.59c0,-2.16 -1.68,-3.51 -4.39,-3.51l-6.85,0l0,13.06l7,0c2.95,0 4.78,-1.46 4.78,-3.82c0.02,-0.65 -0.16,-1.28 -0.52,-1.82c-0.36,-0.54 -0.88,-0.95 -1.48,-1.18" fill="#E40038" id="svg_18"/>
   <path d="m-164.49,79.03l-5.26,-10.3l-2.7,0l0,13.06l2.04,0l0,-10l5.15,10.07l1.4,0l5.14,-10.09l0,10.02l2.09,0l0,-13.06l-2.62,0l-5.24,10.3z" fill="#E40038" id="svg_19"/>
   <path d="m-118.08,68.73l-3.19,0l-5.92,5.28l0,-5.28l-2.09,0l0,5.26l-5.85,-5.21l-0.06,-0.05l-3.19,0l7.34,6.32l-7.66,6.74l3.12,0l6.3,-5.62l0,5.62l2.09,0l0,-5.62l6.32,5.62l3.19,0l-7.71,-6.76l7.31,-6.3z" fill="#E40038" id="svg_20"/>
   <path d="m-106.01,74.17l-7.57,0l0,-5.44l-2.14,0l0,13.06l2.14,0l0,-5.63l7.57,0l0,5.63l2.15,0l0,-13.06l-2.15,0l0,5.44z" fill="#E40038" id="svg_21"/>
   <path d="m-69.66,70.72l5.47,0l0,11.07l2.14,0l0,-11.07l5.47,0l0,-1.99l-13.08,0l0,1.99z" fill="#E40038" id="svg_22"/>
   <path d="m-43.19,68.73l-7.97,9.93l0,-9.93l-2.14,0l0,13.06l2.01,0l7.97,-9.96l0,9.96l2.14,0l0,-13.06l-2.01,0z" fill="#E40038" id="svg_23"/>
   <path d="m-141.84,75.27c0,3.55 -1.13,4.81 -4.35,4.81c-3.22,0 -4.34,-1.26 -4.34,-4.81c0,-3.55 1.18,-4.8 4.34,-4.8c3.16,0 4.35,1.3 4.35,4.8zm-4.35,-6.8c-4.32,0 -6.6,2.35 -6.6,6.78c0,4.43 2.28,6.83 6.6,6.83c4.32,0 6.6,-2.36 6.6,-6.83c0,-4.47 -2.28,-6.78 -6.6,-6.78z" fill="#E40038" id="svg_24"/>
   <path d="m-89.08,75.27c0,3.55 -1.14,4.81 -4.36,4.81c-3.22,0 -4.34,-1.26 -4.34,-4.81c0,-3.55 1.18,-4.8 4.34,-4.8c3.16,0 4.36,1.3 4.36,4.8zm-4.36,-6.8c-4.31,0 -6.6,2.35 -6.6,6.78c0,4.43 2.29,6.83 6.6,6.83c4.31,0 6.6,-2.36 6.6,-6.83c0,-4.47 -2.28,-6.78 -6.6,-6.78z" fill="#E40038" id="svg_25"/>
   <path d="m-193.27,75.27c0,3.55 -1.14,4.81 -4.35,4.81c-3.21,0 -4.34,-1.26 -4.34,-4.81c0,-3.55 1.18,-4.8 4.35,-4.8c3.17,0 4.35,1.3 4.35,4.8m-4.35,-6.8c-4.32,0 -6.6,2.35 -6.6,6.78c0,4.43 2.28,6.83 6.6,6.83c4.32,0 6.59,-2.36 6.59,-6.83c0,-4.47 -2.28,-6.78 -6.59,-6.78z" fill="#E40038" id="svg_26"/>
   <path d="m-46.78,44.96c2.63,0 3.95,1 4.25,3.19l-8.43,0c0.36,-2.26 1.6,-3.19 4.22,-3.19m3.95,7.51c-0.55,1.46 -1.72,2.06 -3.95,2.06c-3.11,0 -4.27,-1.19 -4.32,-4.51l10.88,0l0,-1.15c0,-0.18 0,-0.35 -0.05,-0.51c-0.42,-3.58 -2.61,-5.39 -6.51,-5.39c-4.3,0 -6.58,2.33 -6.58,6.75c0,4.42 2.28,6.81 6.58,6.81c3.21,0 5.27,-1.28 6.13,-3.8l-2.18,-0.26z" fill="#E40038" id="svg_27"/>
   <path d="m-73.25,78.02c-0.56,1.48 -1.77,2.1 -4,2.1c-3.23,0 -4.38,-1.27 -4.38,-4.85c0,-3.58 1.19,-4.85 4.38,-4.85c2.23,0 3.44,0.62 4,2.11l2.22,-0.26c-0.85,-2.56 -2.93,-3.86 -6.22,-3.86c-4.35,0 -6.65,2.36 -6.65,6.83c0,4.47 2.3,6.9 6.65,6.9c3.28,0 5.36,-1.31 6.22,-3.87l-2.22,-0.25z" fill="#E40038" id="svg_28"/>
   <path d="m-143.81,52.54c-0.55,1.49 -1.76,2.1 -4,2.1c-3.23,0 -4.38,-1.26 -4.38,-4.84c0,-3.58 1.19,-4.85 4.38,-4.85c2.23,0 3.44,0.62 4,2.11l2.22,-0.26c-0.85,-2.56 -2.93,-3.86 -6.22,-3.86c-4.35,0 -6.65,2.36 -6.65,6.83c0,4.47 2.3,6.89 6.65,6.89c3.27,0 5.36,-1.3 6.21,-3.86l-2.21,-0.26z" fill="#E40038" id="svg_29"/>
   <path d="m-178.47,75.05c0.52,-0.26 0.96,-0.65 1.26,-1.14c0.31,-0.49 0.47,-1.06 0.47,-1.64c0,-2.39 -2.06,-3.88 -5.38,-3.88c-1.42,-0.08 -2.83,0.27 -4.05,1c-1.03,0.73 -1.77,1.79 -2.1,3l2.18,0.19c0.25,-0.75 0.79,-1.37 1.49,-1.74c0.77,-0.34 1.61,-0.5 2.45,-0.45c1.23,0 3.3,0.24 3.3,1.91c0,1.23 -0.93,1.83 -2.83,1.83l-2.28,0l0,2l2.26,0c2.85,0 3.18,1.06 3.18,1.86c0,1.75 -1.94,2.12 -3.57,2.12c-3.06,0 -3.74,-1.38 -4,-2.17l-2.2,0.2c0.64,2.14 2.41,4 6.21,4c3.56,0 5.77,-1.59 5.77,-4.16c-0.01,-0.65 -0.22,-1.28 -0.6,-1.79c-0.39,-0.52 -0.93,-0.91 -1.55,-1.1" fill="#E40038" id="svg_30"/>
   <path d="m461.35,60.4l0,-13l-9.63,0l-0.78,7.43c-0.32,2.87 -0.68,3.76 -2.33,3.76l-0.57,0l0,2l0.77,0c3,0 3.71,-2 4.07,-5.64l0.58,-5.58l5.74,0l0,11.03l2.15,0z" fill="#E40038" id="svg_31"/>
   <path d="m487.06,60.4l0,-11.06l5.46,0l0,-1.99l-13.07,0l0,1.99l5.47,0l0,11.06l2.14,0z" fill="#E40038" id="svg_32"/>
   <path d="m471.84,49.14c2.62,0 3.93,1 4.22,3.18l-8.4,0c0.38,-2.3 1.59,-3.18 4.18,-3.18zm3.93,7.49c-0.55,1.46 -1.71,2.06 -3.93,2.06c-3.08,0 -4.23,-1.18 -4.29,-4.5l10.81,0l0,-1.19c0,-0.18 0,-0.35 -0.05,-0.51c-0.42,-3.57 -2.6,-5.38 -6.47,-5.38c-4.27,0 -6.52,2.33 -6.52,6.74c0,4.41 2.25,6.8 6.52,6.8c3.2,0 5.24,-1.28 6.09,-3.79l-2.16,-0.23z" fill="#E40038" id="svg_33"/>
   <path d="m470.78,16c-26.42,0 -40.43,12.44 -40.43,39.64c0,27.2 13.94,40.08 40.43,40.08c26.49,0 40.49,-12.88 40.49,-40.08c0,-27.2 -14.07,-39.64 -40.49,-39.64zm0,5.59c24.14,0 34.91,10.5 34.91,34.05c0,23.55 -11.09,34.5 -34.91,34.5c-23.82,0 -34.85,-11 -34.85,-34.5c0,-23.5 10.75,-34 34.85,-34" fill="#E40038" id="svg_34"/>
   <path d="m375.28,22.95l0,-5.28l47.2,0l0,4l-25.54,29.2c14.34,0.86 26.73,7.54 26.73,21.45c0,13.25 -11.53,22.09 -24.57,22.09c-5.36,0.09 -10.67,-1.1 -15.48,-3.46c-4.82,-2.36 -9,-5.83 -12.22,-10.12l4.31,-3.56c6,7.66 13.58,12.08 23.49,12.08c10.13,0 18.65,-6.79 18.65,-16.82c0,-10.67 -9.92,-16.49 -23.5,-16.49l-4.09,0l-1.4,-3.12l26,-30l-39.58,0.03z" fill="#E40038" id="svg_35"/>
  </g>
 </g>
</svg>