<svg width="22" height="22" viewBox="0 0 22 22" fill="none" xmlns="http://www.w3.org/2000/svg">
<g clip-path="url(#clip0_97_338)">
<path d="M19.0667 5.5H19.8V10.6333H19.0667V5.5Z" fill="#E4F2FF"/>
<path d="M0.0503092 17.9608C0.0666016 18.0314 0.0880859 18.1006 0.114762 18.168C0.125326 18.1936 0.141618 18.2159 0.153613 18.2414C0.259961 18.477 0.432194 18.677 0.649365 18.8173C0.702897 18.851 0.758398 18.8812 0.815869 18.9079C0.843978 18.9219 0.869759 18.9402 0.899121 18.9527C0.964469 18.9779 1.03161 18.9985 1.1 19.0143C1.1256 19.0209 1.14906 19.0318 1.1752 19.037C1.27116 19.0565 1.36873 19.0665 1.46667 19.0667H11.3667V18.3334H1.46667C1.41743 18.3334 1.3682 18.3284 1.32004 18.3187C1.30231 18.315 1.28584 18.3076 1.26865 18.303C1.23965 18.2958 1.21118 18.287 1.18325 18.2765C1.15819 18.2645 1.13366 18.251 1.10985 18.2365C1.09338 18.227 1.07583 18.2197 1.06007 18.2093C1.02069 18.1825 0.983805 18.1519 0.949967 18.118C0.916309 18.0844 0.885872 18.0477 0.859017 18.0081C0.845231 17.9871 0.834847 17.9637 0.822493 17.9413C0.809961 17.9189 0.800114 17.9046 0.791699 17.8838C0.779525 17.853 0.769678 17.8214 0.762337 17.7891C0.758219 17.7748 0.751953 17.7614 0.749089 17.7463C0.705225 17.5308 0.760368 17.3068 0.899479 17.1364C1.03841 16.9659 1.24663 16.8669 1.46667 16.8667H2.56667C2.76916 16.8667 2.93333 16.7026 2.93333 16.5001V3.66673H15.7667V2.9334H2.93333V1.10007C2.93333 0.897396 2.76916 0.733398 2.56667 0.733398H1.46667C0.656706 0.733398 0 1.38993 0 2.20006V17.6001C0 17.6985 0.010026 17.7968 0.0297201 17.8933C0.034554 17.9161 0.044401 17.9377 0.0503092 17.9608ZM0.733333 2.20006C0.733333 1.79491 1.06169 1.46673 1.46667 1.46673H2.2V16.1334H1.46667C1.20903 16.1329 0.956055 16.2009 0.733333 16.3302V2.20006Z" fill="#E4F2FF"/>
<path d="M9.97842 8.31133L9.19638 7.33343H12.4667V6.6001H8.43333C8.32466 6.60063 8.22207 6.64933 8.15278 6.73312C8.15278 6.73527 8.14848 6.73563 8.14705 6.7376L5.21372 10.4043C5.19456 10.429 5.17845 10.4562 5.16592 10.4848C5.16592 10.4873 5.16305 10.4893 5.16198 10.4918C5.14604 10.5321 5.13727 10.5749 5.1362 10.6184C5.1362 10.6238 5.13333 10.6282 5.13333 10.6334V15.0334C5.13333 15.2359 5.29751 15.4001 5.5 15.4001H15.0333V14.6668H11.7333V11.0001H16.8667V13.2001H17.6V10.6334C17.6 10.6282 17.5971 10.6238 17.5971 10.6184C17.5961 10.5751 17.5875 10.5325 17.5714 10.4922C17.5714 10.4889 17.5678 10.4866 17.5667 10.4838C17.5545 10.4555 17.5388 10.4288 17.5196 10.4046L16.4196 9.02801L15.8471 9.48563L16.4703 10.2668H11.543L9.97842 8.31133ZM8.43333 7.55329L9.88013 9.36209L10.6036 10.2668H6.26305L8.43333 7.55329ZM5.86666 11.0001H11V14.6668H9.9V12.1001C9.9 11.8974 9.73582 11.7334 9.53333 11.7334H7.33333C7.13084 11.7334 6.96666 11.8974 6.96666 12.1001V14.6668H5.86666V11.0001ZM7.7 14.6668V12.4668H9.16667V14.6668H7.7Z" fill="#E4F2FF"/>
<path d="M13.5667 11.7334C13.3642 11.7334 13.2 11.8974 13.2 12.1001V13.5667C13.2 13.7692 13.3642 13.9334 13.5667 13.9334H15.0333C15.2358 13.9334 15.4 13.7692 15.4 13.5667V12.1001C15.4 11.8974 15.2358 11.7334 15.0333 11.7334H13.5667ZM14.6667 13.2001H13.9333V12.4667H14.6667V13.2001Z" fill="#E4F2FF"/>
<path d="M21.7737 9.92779C21.6367 9.87103 21.479 9.90254 21.3741 10.0075L10.0074 21.3741C9.90269 21.4789 9.87118 21.6366 9.92793 21.7736C9.98469 21.9105 10.1184 21.9999 10.2667 22H21.6333C21.8358 22 22 21.8359 22 21.6334V10.2667C22 10.1183 21.9107 9.98454 21.7737 9.92779ZM21.2667 21.2667H11.1518L21.2667 11.1517V21.2667Z" fill="#E4F2FF"/>
<path d="M15.4279 19.5736C15.4847 19.7106 15.6184 19.7999 15.7667 19.7999H19.4333C19.6358 19.7999 19.8 19.6357 19.8 19.4332V15.7666C19.8 15.6181 19.7107 15.4846 19.5737 15.4278C19.4367 15.3711 19.279 15.4024 19.1741 15.5073L15.5074 19.174C15.4025 19.2787 15.3712 19.4365 15.4279 19.5736ZM19.0667 16.6515V19.0666H16.6518L19.0667 16.6515Z" fill="#E4F2FF"/>
<path d="M20.4259 0.107422C20.2827 -0.0358073 20.0507 -0.0358073 19.9074 0.107422L13.3074 6.70742C13.2673 6.7477 13.2371 6.79676 13.219 6.85065L12.8523 7.95065C12.8084 8.08242 12.8426 8.22762 12.9408 8.32573L13.0482 8.43333L12.2074 9.27409L12.7259 9.7924L13.5667 8.95164L13.6741 9.05906C13.7428 9.12799 13.8361 9.16649 13.9333 9.16667C13.9727 9.16649 14.0117 9.16022 14.0492 9.14787L15.1492 8.7812C15.2032 8.76312 15.2523 8.73286 15.2926 8.6924L21.8926 2.0924C22.0356 1.94935 22.0356 1.71714 21.8926 1.57409L20.4259 0.107422ZM14.2685 6.78333L15.7667 5.28498L16.7148 6.23333L15.2167 7.73151L14.2685 6.78333ZM14.0327 8.38052L13.6198 7.96766L13.8186 7.37021L14.63 8.18143L14.0327 8.38052ZM17.2333 5.71484L16.2852 4.76667L20.1667 0.884977L21.1148 1.83333L17.2333 5.71484Z" fill="#E4F2FF"/>
<path d="M3.66666 15.3999V16.4999C3.66666 16.7024 3.83084 16.8666 4.03333 16.8666H5.13333V16.1332H4.4V15.3999H3.66666Z" fill="#E4F2FF"/>
<path d="M5.13333 4.3999H4.03333C3.83084 4.3999 3.66666 4.5639 3.66666 4.76657V5.86657H4.4V5.13324H5.13333V4.3999Z" fill="#E4F2FF"/>
</g>
<defs>
<clipPath id="clip0_97_338">
<rect width="22" height="22" fill="white"/>
</clipPath>
</defs>
</svg>
