<svg width="78" height="78" viewBox="0 0 78 78" fill="none" xmlns="http://www.w3.org/2000/svg">
<g clip-path="url(#clip0_97_2190)">
<path d="M77.8569 36.7705C77.8245 36.6925 77.7919 36.621 77.7465 36.5462C77.6685 36.4163 77.5678 36.3056 77.454 36.2018C77.4084 36.1595 77.389 36.1011 77.337 36.0653C77.3143 36.0489 77.2817 36.049 77.259 36.0328C77.2298 36.0133 77.2134 35.9841 77.181 35.9646L69.8848 31.7947C70.8598 30.8556 71.5001 29.5847 71.5001 28.1483C71.5001 26.208 70.4178 24.4595 68.6792 23.5852L56.7712 17.6312L58.1525 14.1765L59.0885 13.7085C59.5728 14.001 60.1318 14.1602 60.7136 14.1602C61.0093 14.1602 61.3115 14.1212 61.6106 14.0366L74.1361 10.4552C76.4108 9.80195 78 7.69595 78 5.33005C78 2.39195 75.608 0 72.67 0H71.175C69.966 0 68.7831 0.416051 67.8437 1.1668L58.7306 8.4566C57.9767 9.0611 57.6062 9.93205 57.5736 10.8324L56.1469 11.5442C55.7893 11.7229 55.5099 12.0251 55.3637 12.3956L53.8525 16.1721L49.3121 13.9035C45.8443 12.168 41.3983 13.1072 38.9252 16.0746L25.0802 32.6885L1.209 39.0553C1.11805 39.0814 1.0498 39.1365 0.96525 39.1755C0.9165 39.1982 0.858 39.1884 0.80925 39.2177C0.78 39.234 0.767051 39.2696 0.741 39.2859C0.53625 39.4225 0.357551 39.5882 0.234 39.7962C0.221051 39.8189 0.2145 39.8417 0.201551 39.8644C0.0943008 40.066 0.039 40.2902 0.0260508 40.5242C0.0260508 40.56 0 40.5892 0 40.6249V63.375C0 63.9568 0.312 64.4963 0.819 64.7856L23.5689 77.7855C23.8193 77.9286 24.0986 78 24.375 78C24.5342 78 24.6999 77.9773 24.8593 77.9252L76.8592 61.6752C77.5386 61.4638 78 60.8366 78 60.1249V37.3749C78 37.3196 77.9676 37.2743 77.9642 37.2189C77.9481 37.063 77.9155 36.9167 77.8569 36.7705ZM69.8783 3.705C70.2422 3.4125 70.7038 3.24995 71.175 3.24995H72.6733C73.8206 3.24995 74.7533 4.18275 74.7533 5.3299C74.7533 6.25295 74.1324 7.07515 73.2452 7.32865L61.581 10.6631C61.5778 10.6566 61.5778 10.6534 61.5778 10.6468C61.542 10.572 61.4771 10.5266 61.4316 10.4616L69.8783 3.705ZM41.4246 18.1545C42.4354 16.9455 43.9174 16.2501 45.4935 16.2501C46.3093 16.2501 47.1283 16.4451 47.8693 16.8058L52.6436 19.1914L52.3153 20.0104L36.5366 29.4808C35.7696 29.9422 35.5194 30.9401 35.9809 31.7104C36.2863 32.2206 36.8226 32.5001 37.3751 32.5001C37.661 32.5001 37.9504 32.4253 38.2104 32.2661L54.4605 22.5161C54.7659 22.3341 54.9999 22.0579 55.1332 21.7264L55.5622 20.6539L67.233 26.4876C67.8635 26.8061 68.2567 27.4399 68.2567 28.158C68.2567 29.0094 67.6783 29.7472 66.8527 29.9552L66.063 30.1534C66.0598 30.1534 66.0532 30.1566 66.05 30.1566L22.3147 41.0895L41.4246 18.1545ZM22.7499 73.5735L3.24995 62.4324V43.4265L22.7499 54.5676V73.5735ZM24.5668 51.8634L5.8663 41.1774L21.4792 37.0142L16.6269 42.8349C16.1784 43.3778 16.1265 44.1446 16.5002 44.7394C16.7992 45.2203 17.3258 45.4999 17.8749 45.4999C18.0049 45.4999 18.1382 45.4836 18.2715 45.448L23.7315 44.0829L28.4147 46.8941C28.6779 47.0501 28.9673 47.125 29.25 47.125C29.7992 47.125 30.3388 46.8454 30.6442 46.3384C31.1057 45.5681 30.8587 44.5704 30.0885 44.1088L28.1873 42.9681L34.4338 41.4081L38.1649 43.644C38.4281 43.8 38.7174 43.8748 39.0002 43.8748C39.5494 43.8748 40.089 43.5953 40.3944 43.0883C40.8559 42.318 40.6089 41.3203 39.8387 40.8587L38.8929 40.2932L45.1427 38.73L47.9117 40.3941C48.1781 40.5501 48.4674 40.6249 48.7502 40.6249C49.2994 40.6249 49.839 40.3453 50.1444 39.8383C50.6027 39.0713 50.3589 38.0801 49.5984 37.6153L55.8482 36.0521L57.6649 37.1409C57.9281 37.3001 58.2174 37.3749 58.5002 37.3749C59.0494 37.3749 59.589 37.0954 59.8944 36.5884C60.1901 36.0943 60.1674 35.5159 59.9268 35.035L66.2417 33.4554L72.3322 36.9362L24.5668 51.8634ZM74.75 58.929L26.0001 74.165V54.8177L74.75 39.585V58.929Z" fill="#0EA422"/>
</g>
<defs>
<clipPath id="clip0_97_2190">
<rect width="78" height="78" fill="white"/>
</clipPath>
</defs>
</svg>
