<svg width="12" height="12" viewBox="0 0 12 12" fill="none" xmlns="http://www.w3.org/2000/svg">
<path d="M5.2088 1.21421C5.4604 0.712892 6.17596 0.712892 6.42756 1.21421L7.68385 3.7174C7.78306 3.91509 7.97201 4.05236 8.19067 4.08563L10.9596 4.5069C11.5141 4.59127 11.7352 5.27181 11.3362 5.66601L9.34372 7.63434C9.18637 7.78979 9.1142 8.01191 9.15013 8.23015L9.60511 10.9937C9.69623 11.5472 9.11733 11.9678 8.61912 11.7101L6.13142 10.4234C5.93495 10.3218 5.70141 10.3218 5.50495 10.4234L3.01725 11.7101C2.51903 11.9678 1.94013 11.5472 2.03125 10.9937L2.48623 8.23015C2.52216 8.0119 2.44999 7.78979 2.29264 7.63434L0.300177 5.66601C-0.0988547 5.27181 0.122267 4.59127 0.676794 4.5069L3.44569 4.08563C3.66436 4.05236 3.8533 3.91509 3.95251 3.7174L5.2088 1.21421Z" fill="#FFC700"/>
</svg>
