<svg width="75" height="75" viewBox="0 0 75 75" fill="none" xmlns="http://www.w3.org/2000/svg">
<g clip-path="url(#clip0_97_2088)">
<mask id="mask0_97_2088" style="mask-type:luminance" maskUnits="userSpaceOnUse" x="0" y="0" width="75" height="75">
<path d="M0 6.86646e-05H74.6667V74.6667H0V6.86646e-05Z" fill="white"/>
</mask>
<g mask="url(#mask0_97_2088)">
<path d="M4.97577 73.2083H34.4245V64.6411H4.97577V73.2083Z" stroke="#0EA422" stroke-width="2.91667" stroke-miterlimit="10" stroke-linecap="round" stroke-linejoin="round"/>
<path d="M34.4243 20.3528L4.97562 33.4336V64.6411H34.4243" stroke="#0EA422" stroke-width="2.91667" stroke-miterlimit="10" stroke-linecap="round" stroke-linejoin="round"/>
<path d="M34.4244 73.2083H69.6911V14.5391L34.4244 1.45824V26.8999" stroke="#0EA422" stroke-width="2.91667" stroke-miterlimit="10" stroke-linecap="round" stroke-linejoin="round"/>
<path d="M57.2779 73.2083H46.8374V56.8077H57.2779V73.2083Z" stroke="#0EA422" stroke-width="2.91667" stroke-miterlimit="10" stroke-linecap="round" stroke-linejoin="round"/>
</g>
<path d="M48.5634 49.1221H40.5305V36.9944H48.5634V49.1221Z" stroke="#0EA422" stroke-width="2.91667" stroke-miterlimit="10" stroke-linecap="round" stroke-linejoin="round"/>
<path d="M63.5848 49.1221H55.5519V36.9944H63.5848V49.1221Z" stroke="#0EA422" stroke-width="2.91667" stroke-miterlimit="10" stroke-linecap="round" stroke-linejoin="round"/>
<path d="M48.5641 17.6859V30.2537H40.5309V15.218H41.9084L48.5641 17.6859Z" stroke="#0EA422" stroke-width="2.91667" stroke-miterlimit="10" stroke-linecap="round" stroke-linejoin="round"/>
<path d="M63.5845 23.2586V30.2539H55.5526V20.279L63.5845 23.2586Z" stroke="#0EA422" stroke-width="2.91667" stroke-miterlimit="10" stroke-linecap="round" stroke-linejoin="round"/>
<path d="M26.5306 64.6411H12.8694V53.0899H26.5306V64.6411Z" stroke="#0EA422" stroke-width="2.91667" stroke-miterlimit="10" stroke-linecap="round" stroke-linejoin="round"/>
<path d="M26.5305 34.088V46.0061H12.8697V37.9148L21.9638 34.088H26.5305Z" stroke="#0EA422" stroke-width="2.91667" stroke-miterlimit="10" stroke-linecap="round" stroke-linejoin="round"/>
<mask id="mask1_97_2088" style="mask-type:luminance" maskUnits="userSpaceOnUse" x="0" y="0" width="75" height="75">
<path d="M0 6.86646e-05H74.6667V74.6667H0V6.86646e-05Z" fill="white"/>
</mask>
<g mask="url(#mask1_97_2088)">
<path d="M40.5305 63.2653V72.771" stroke="#0EA422" stroke-width="2.91667" stroke-miterlimit="10" stroke-linecap="round" stroke-linejoin="round"/>
<path d="M63.5845 63.2653V72.771" stroke="#0EA422" stroke-width="2.91667" stroke-miterlimit="10" stroke-linecap="round" stroke-linejoin="round"/>
<path d="M34.4244 72.771V49.705" stroke="#0EA422" stroke-width="2.91667" stroke-miterlimit="10" stroke-linecap="round" stroke-linejoin="round"/>
</g>
<path d="M34.4244 36.5198V26.1956" stroke="#0EA422" stroke-width="2.91667" stroke-miterlimit="10" stroke-linecap="round" stroke-linejoin="round"/>
</g>
<defs>
<clipPath id="clip0_97_2088">
<rect width="74.6667" height="74.6667" fill="white"/>
</clipPath>
</defs>
</svg>
