<svg width="22" height="14" viewBox="0 0 22 14" fill="none" xmlns="http://www.w3.org/2000/svg">
<path d="M21.8833 12.6435C21.8567 12.5795 21.8319 12.5264 21.8088 12.4838C21.4271 11.7171 20.6977 10.7759 19.621 9.66014L19.5982 9.63459L19.5868 9.62206L19.5753 9.60922H19.5638C19.0751 9.08965 18.7657 8.7403 18.6361 8.56144C18.399 8.22073 18.3459 7.87586 18.4754 7.52642C18.567 7.26241 18.9109 6.70485 19.5064 5.85298C19.8196 5.40152 20.0676 5.03968 20.2508 4.76708C21.572 2.80801 22.1448 1.55614 21.9691 1.01098L21.9008 0.883578C21.855 0.80688 21.7366 0.736714 21.5459 0.672725C21.3548 0.608869 21.1105 0.598309 20.8126 0.640865L17.5138 0.666281C17.4604 0.64516 17.3841 0.647129 17.2846 0.672725C17.1853 0.698321 17.1357 0.711164 17.1357 0.711164L17.0783 0.743158L17.0327 0.781597C16.9945 0.807014 16.9525 0.851717 16.9066 0.915617C16.861 0.979294 16.8229 1.05402 16.7924 1.13918C16.4332 2.16977 16.0249 3.12796 15.5666 4.0137C15.284 4.54186 15.0245 4.99959 14.7876 5.38715C14.5509 5.77458 14.3523 6.06003 14.1921 6.243C14.0316 6.42616 13.8868 6.57289 13.7567 6.68373C13.6269 6.79461 13.5277 6.84146 13.4591 6.82432C13.3903 6.80719 13.3255 6.79018 13.2641 6.77318C13.1573 6.69648 13.0714 6.59217 13.0066 6.46017C12.9415 6.32816 12.8977 6.16201 12.8748 5.96185C12.852 5.76156 12.8385 5.58928 12.8346 5.44443C12.8311 5.29976 12.8327 5.09513 12.8405 4.83111C12.8484 4.56697 12.852 4.38824 12.852 4.29454C12.852 3.97083 12.8576 3.61952 12.869 3.2405C12.8805 2.86148 12.8899 2.56118 12.8977 2.33995C12.9055 2.11849 12.9091 1.88419 12.9091 1.63718C12.9091 1.39017 12.8956 1.19646 12.869 1.05586C12.8427 0.915438 12.8023 0.779136 12.749 0.646995C12.6955 0.514988 12.6171 0.412873 12.5142 0.340381C12.4111 0.267979 12.283 0.210523 12.1305 0.167833C11.7257 0.0656732 11.2103 0.0104095 10.584 0.00181783C9.16374 -0.0151864 8.25114 0.0871074 7.84641 0.308565C7.68605 0.402133 7.54094 0.529978 7.41119 0.691698C7.2737 0.879147 7.25452 0.981442 7.35378 0.998267C7.81203 1.07483 8.13643 1.25798 8.32736 1.54755L8.39617 1.70099C8.44969 1.8117 8.50313 2.00769 8.55661 2.28871C8.61001 2.56973 8.64447 2.88059 8.65963 3.22112C8.69775 3.84299 8.69775 4.37531 8.65963 4.81814C8.6214 5.26114 8.58529 5.60602 8.55083 5.85302C8.51637 6.10003 8.46485 6.30019 8.39617 6.45345C8.32736 6.60676 8.28159 6.70046 8.25864 6.73447C8.23573 6.76848 8.21663 6.78991 8.20147 6.79833C8.10221 6.84075 7.99898 6.86236 7.89214 6.86236C7.78515 6.86236 7.6554 6.80267 7.5027 6.68337C7.35005 6.56407 7.19161 6.4002 7.0274 6.1915C6.86319 5.98275 6.678 5.69104 6.47175 5.31632C6.26565 4.9416 6.05181 4.49873 5.83035 3.9877L5.64713 3.6171C5.53259 3.37868 5.37612 3.03153 5.17757 2.57595C4.97889 2.12019 4.80329 1.67933 4.65063 1.25346C4.58961 1.07461 4.49794 0.938439 4.37577 0.844737L4.31844 0.806298C4.28033 0.772289 4.21915 0.736177 4.13522 0.697694C4.05117 0.659256 3.96346 0.631691 3.87175 0.614731L0.733227 0.640148C0.412511 0.640148 0.194901 0.721187 0.0803196 0.88304L0.0344628 0.959604C0.0115545 1.00225 0 1.07036 0 1.1641C0 1.25781 0.0229083 1.37281 0.0687651 1.50898C0.526932 2.71001 1.02518 3.86832 1.5635 4.98406C2.10183 6.09981 2.56963 6.99857 2.96661 7.67955C3.36367 8.36102 3.7684 9.00418 4.18079 9.60873C4.59318 10.2135 4.86616 10.6011 4.99972 10.7713C5.13343 10.9419 5.23847 11.0694 5.31482 11.1546L5.60123 11.4612C5.7845 11.6656 6.05362 11.9105 6.40872 12.1957C6.7639 12.4812 7.15711 12.7622 7.58856 13.0392C8.02009 13.3158 8.5221 13.5415 9.09489 13.7161C9.6676 13.8908 10.225 13.961 10.7672 13.9271H12.0845C12.3517 13.9014 12.5541 13.8077 12.6917 13.646L12.7372 13.5819C12.7679 13.5311 12.7966 13.4521 12.8231 13.3459C12.8499 13.2394 12.8632 13.1221 12.8632 12.9945C12.8554 12.6284 12.8803 12.2984 12.9375 12.0045C12.9946 11.7108 13.0596 11.4894 13.1324 11.3402C13.2052 11.1912 13.2872 11.0655 13.3786 10.9635C13.4701 10.8614 13.5354 10.7995 13.5737 10.7782C13.6117 10.7567 13.6421 10.7422 13.665 10.7335C13.8482 10.6654 14.0639 10.7313 14.3123 10.9317C14.5606 11.1318 14.7934 11.379 15.0111 11.6727C15.2288 11.9667 15.4903 12.2965 15.7957 12.6627C16.1013 13.029 16.3685 13.3013 16.5975 13.4804L16.8265 13.6337C16.9794 13.736 17.178 13.8297 17.4224 13.9149C17.6663 14 17.8801 14.0213 18.0636 13.9787L20.9959 13.9277C21.2859 13.9277 21.5116 13.8742 21.6717 13.7679C21.8321 13.6614 21.9273 13.5441 21.9581 13.4166C21.9887 13.2888 21.9904 13.144 21.9639 12.982C21.9367 12.8204 21.91 12.7074 21.8833 12.6435Z" fill="white"/>
</svg>
