<?xml version="1.0" encoding="UTF-8" standalone="no" ?>
<!DOCTYPE svg PUBLIC "-//W3C//DTD SVG 1.1//EN" "http://www.w3.org/Graphics/SVG/1.1/DTD/svg11.dtd">
<svg xmlns="http://www.w3.org/2000/svg" xmlns:xlink="http://www.w3.org/1999/xlink" version="1.1" width="1080" height="1080" viewBox="0 0 1080 1080" xml:space="preserve">
<desc>Created with Fabric.js 5.2.4</desc>
<defs>
</defs>
<g transform="matrix(1 0 0 1 540 540)" id="cd100f17-e50a-4a7e-b727-5f733ecca703"  >
<rect style="stroke: none; stroke-width: 1; stroke-dasharray: none; stroke-linecap: butt; stroke-dashoffset: 0; stroke-linejoin: miter; stroke-miterlimit: 4; fill: rgb(255,255,255); fill-rule: nonzero; opacity: 1; visibility: hidden;" vector-effect="non-scaling-stroke"  x="-540" y="-540" rx="0" ry="0" width="1080" height="1080" />
</g>
<g transform="matrix(1 0 0 1 540 540)" id="5e7b48a9-4c4f-489c-b51c-425e8d953b58"  >
</g>
<g transform="matrix(11.02 0 0 11.02 540 540)"  >
<g style=""   >
		<g transform="matrix(1 0 0 1 -34.1 -8.34)"  >
<path style="stroke: none; stroke-width: 1; stroke-dasharray: none; stroke-linecap: butt; stroke-dashoffset: 0; stroke-linejoin: miter; stroke-miterlimit: 4; fill: rgb(0,170,255); fill-rule: nonzero; opacity: 1;" vector-effect="non-scaling-stroke"  transform=" translate(-14.9, -9.16)" d="M 6.67136 0 L 5.00248 4.57877 L 28.1294 4.57877 L 29.7983 0 L 6.67136 0 Z M 4.16752 6.86711 L 2.49864 11.4448 L 25.6256 11.4448 L 27.2945 6.86711 L 4.16752 6.86711 Z M 1.66888 13.7342 L 0 18.312 L 23.127 18.312 L 24.7948 13.7342 L 1.66888 13.7342 Z" stroke-linecap="round" />
</g>
		<g transform="matrix(1 0 0 1 17.35 3.48)"  >
<path style="stroke: none; stroke-width: 1; stroke-dasharray: none; stroke-linecap: butt; stroke-dashoffset: 0; stroke-linejoin: miter; stroke-miterlimit: 4; fill: rgb(10,40,150); fill-rule: nonzero; opacity: 1;" vector-effect="non-scaling-stroke"  transform=" translate(-66.35, -20.98)" d="M 49.1664 20.0567 L 49.1664 20.1534 C 50.2233 20.5419 51.2329 21.2214 51.7619 21.6577 C 53.3961 23.0166 54.1176 24.8118 54.1176 27.1411 C 54.1176 30.9757 52.0984 33.7413 48.7815 34.615 C 47.7719 34.9059 46.715 35.0035 44.7431 35.0035 L 34.6978 35.0035 L 34.6978 6.95508 L 43.5905 6.95508 C 45.4172 6.95508 46.6666 7.05169 47.7719 7.34258 C 50.9931 8.2163 53.108 10.4489 53.108 13.9905 C 53.108 15.8834 52.4349 17.4855 51.3296 18.5524 C 50.849 19.0376 50.176 19.6204 49.1664 20.0567 Z M 40.2736 23.0166 L 40.2736 30.3928 L 44.1195 30.3928 C 45.2721 30.3928 46.3301 30.2962 47.0999 29.568 C 47.8687 28.8397 48.2052 27.9182 48.2052 26.7047 C 48.2052 25.7832 47.9643 24.9095 47.4837 24.2789 C 46.6666 23.2597 45.657 23.0166 43.9271 23.0166 L 40.2736 23.0166 Z M 40.2252 18.1638 L 43.3497 18.1638 C 44.3109 18.1638 44.7915 18.1638 45.2721 18.0184 C 46.5709 17.6298 47.388 16.4663 47.388 14.8643 C 47.388 12.9724 46.5225 12.1465 45.2721 11.759 C 44.7431 11.6135 44.2152 11.5647 43.1572 11.5647 L 40.2252 11.5647 L 40.2252 18.1638 Z M 62.4814 35.0035 L 62.4814 11.6613 L 54.4541 11.6613 L 54.4541 6.95508 L 76.7586 6.95508 L 75.1727 11.6613 L 68.0572 11.6613 L 68.0572 35.0035 L 62.4814 35.0035 Z M 78.4886 35.0035 L 78.4886 6.95508 L 96.5633 6.95508 L 94.9774 11.6613 L 84.0171 11.6613 L 84.0171 17.873 L 88.4877 17.873 C 92.0927 17.873 93.9678 18.7467 95.2656 19.8625 C 96.2752 20.7362 98.0051 22.6769 98.0051 26.5115 C 98.0051 30.2962 96.2268 32.3824 94.7366 33.4504 C 93.0066 34.6628 91.1799 35.0035 87.4781 35.0035 L 78.4886 35.0035 Z M 84.0171 30.2962 L 88.1995 30.2962 C 89.7854 30.2962 90.7466 29.9077 91.4197 29.034 C 91.7562 28.5976 92.2368 27.8205 92.2368 26.365 C 92.2368 24.9095 91.7562 23.8903 90.795 23.162 C 90.2187 22.7257 89.4489 22.4837 88.1511 22.4837 L 84.0171 22.4837 L 84.0171 30.2962 Z" stroke-linecap="round" />
</g>
</g>
</g>
<g transform="matrix(11.02 0 0 11.02 540 540)"  >
<g style=""   >
		<g transform="matrix(1 0 0 1 -34.1 -8.34)"  >
<path style="stroke: none; stroke-width: 1; stroke-dasharray: none; stroke-linecap: butt; stroke-dashoffset: 0; stroke-linejoin: miter; stroke-miterlimit: 4; fill: rgb(0,170,255); fill-rule: nonzero; opacity: 1;" vector-effect="non-scaling-stroke"  transform=" translate(-14.9, -9.16)" d="M 6.67136 0 L 5.00248 4.57877 L 28.1294 4.57877 L 29.7983 0 L 6.67136 0 Z M 4.16752 6.86711 L 2.49864 11.4448 L 25.6256 11.4448 L 27.2945 6.86711 L 4.16752 6.86711 Z M 1.66888 13.7342 L 0 18.312 L 23.127 18.312 L 24.7948 13.7342 L 1.66888 13.7342 Z" stroke-linecap="round" />
</g>
		<g transform="matrix(1 0 0 1 17.35 3.48)"  >
<path style="stroke: none; stroke-width: 1; stroke-dasharray: none; stroke-linecap: butt; stroke-dashoffset: 0; stroke-linejoin: miter; stroke-miterlimit: 4; fill: rgb(10,40,150); fill-rule: nonzero; opacity: 1;" vector-effect="non-scaling-stroke"  transform=" translate(-66.35, -20.98)" d="M 49.1664 20.0567 L 49.1664 20.1534 C 50.2233 20.5419 51.2329 21.2214 51.7619 21.6577 C 53.3961 23.0166 54.1176 24.8118 54.1176 27.1411 C 54.1176 30.9757 52.0984 33.7413 48.7815 34.615 C 47.7719 34.9059 46.715 35.0035 44.7431 35.0035 L 34.6978 35.0035 L 34.6978 6.95508 L 43.5905 6.95508 C 45.4172 6.95508 46.6666 7.05169 47.7719 7.34258 C 50.9931 8.2163 53.108 10.4489 53.108 13.9905 C 53.108 15.8834 52.4349 17.4855 51.3296 18.5524 C 50.849 19.0376 50.176 19.6204 49.1664 20.0567 Z M 40.2736 23.0166 L 40.2736 30.3928 L 44.1195 30.3928 C 45.2721 30.3928 46.3301 30.2962 47.0999 29.568 C 47.8687 28.8397 48.2052 27.9182 48.2052 26.7047 C 48.2052 25.7832 47.9643 24.9095 47.4837 24.2789 C 46.6666 23.2597 45.657 23.0166 43.9271 23.0166 L 40.2736 23.0166 Z M 40.2252 18.1638 L 43.3497 18.1638 C 44.3109 18.1638 44.7915 18.1638 45.2721 18.0184 C 46.5709 17.6298 47.388 16.4663 47.388 14.8643 C 47.388 12.9724 46.5225 12.1465 45.2721 11.759 C 44.7431 11.6135 44.2152 11.5647 43.1572 11.5647 L 40.2252 11.5647 L 40.2252 18.1638 Z M 62.4814 35.0035 L 62.4814 11.6613 L 54.4541 11.6613 L 54.4541 6.95508 L 76.7586 6.95508 L 75.1727 11.6613 L 68.0572 11.6613 L 68.0572 35.0035 L 62.4814 35.0035 Z M 78.4886 35.0035 L 78.4886 6.95508 L 96.5633 6.95508 L 94.9774 11.6613 L 84.0171 11.6613 L 84.0171 17.873 L 88.4877 17.873 C 92.0927 17.873 93.9678 18.7467 95.2656 19.8625 C 96.2752 20.7362 98.0051 22.6769 98.0051 26.5115 C 98.0051 30.2962 96.2268 32.3824 94.7366 33.4504 C 93.0066 34.6628 91.1799 35.0035 87.4781 35.0035 L 78.4886 35.0035 Z M 84.0171 30.2962 L 88.1995 30.2962 C 89.7854 30.2962 90.7466 29.9077 91.4197 29.034 C 91.7562 28.5976 92.2368 27.8205 92.2368 26.365 C 92.2368 24.9095 91.7562 23.8903 90.795 23.162 C 90.2187 22.7257 89.4489 22.4837 88.1511 22.4837 L 84.0171 22.4837 L 84.0171 30.2962 Z" stroke-linecap="round" />
</g>
</g>
</g>
</svg>